<svg version="1.1" xmlns="http://www.w3.org/2000/svg" xmlns:xlink="http://www.w3.org/1999/xlink" x="0px" y="0px" viewBox="0 0 612 145.957">
<g>
	<path fill="#7A6E5D" d="M591.575,109.704h-56.508l22.134-44.268c2.522-5.043,9.718-5.043,12.24,0L591.575,109.704z"/>
	<path opacity="0.5" fill="#0A1C29" d="M563.321,61.654c-2.429,0-4.859,1.261-6.12,3.782l-22.134,44.268h28.254V61.654z"/>
	<g>
		<path fill="#B5A95B" d="M533.391,102.861c-5.435,0-9.842,6.914-9.842,6.914h19.683
			C543.232,109.776,538.826,102.861,533.391,102.861z"/>
		<g>
			<path fill="#B5A95B" d="M573.337,102.793c-5.542,0-10.035,7.05-10.035,7.05h20.07
				C583.372,109.844,578.88,102.793,573.337,102.793z"/>
			<path fill="#858043" d="M593.407,102.725c-5.542,0-10.035,7.05-10.035,7.05h20.07
				C603.442,109.775,598.95,102.725,593.407,102.725z"/>
			<path fill="#858043" d="M553.267,102.725c-5.542,0-10.035,7.05-10.035,7.05h20.07
				C563.302,109.775,558.81,102.725,553.267,102.725z"/>
		</g>
	</g>
</g>
<g>
	<polygon fill="#E55132" points="349.503,140.062 330.522,140.062 355.056,105.621 	"/>
	<polygon fill="#F59E51" points="338.641,140.062 330.522,140.062 355.056,105.621 	"/>
	<polyline fill="#E55132" points="320.638,114.439 327.812,140.062 317.211,140.062 	"/>
	<polyline fill="#F59E51" points="320.638,114.439 322.511,140.062 317.211,140.062 	"/>
	<polygon fill="#E55132" points="319.025,140.062 301.81,140.062 304.909,121.979 	"/>
	<polygon fill="#F59E51" points="319.025,140.062 301.81,140.062 304.909,121.979 	"/>
	<polygon fill="#E55132" points="341.934,140.062 359.148,140.062 356.049,121.979 	"/>
	<polygon fill="#E55132" points="325.865,140.062 307.966,140.062 309.203,103.896 	"/>
	<polygon fill="#F59E51" points="311.437,140.062 307.966,140.062 309.203,103.896 	"/>
	<polygon fill="#E55132" points="344.273,140.062 319.025,140.062 338.297,99.964 	"/>
	<polygon fill="#F59E51" points="325.865,140.062 319.025,140.062 338.297,99.964 	"/>
	<path fill="#0A1C29" d="M307.11,126.534c-7.471,0-13.528,13.528-13.528,13.528h27.056
		C320.638,140.062,314.582,126.534,307.11,126.534z"/>
	<path fill="#0A1C29" d="M331.17,126.534c-7.471,0-13.528,13.528-13.528,13.528h27.056
		C344.698,140.062,338.641,126.534,331.17,126.534z"/>
	<path fill="#0A1C29" d="M355.462,126.534c-7.471,0-13.528,13.528-13.528,13.528h27.056
		C368.99,140.062,362.933,126.534,355.462,126.534z"/>
</g>
<g>
	<polygon fill="#E55132" points="145.844,17.167 236.463,17.167 236.463,111.033 176.88,111.033 145.844,111.033 120.73,111.033 	
		"/>
	<polygon fill="#FFFFFF" points="211.079,111.033 267.498,111.033 236.462,17.167 	"/>
	<polygon fill="#00A459" points="236.462,17.167 267.498,111.033 236.462,111.033 	"/>
	<rect x="267.498" y="102.023" fill="#FFFFFF" width="3.323" height="8.876"/>
	<rect x="233.606" y="8.122" fill="#FFFFFF" width="3.323" height="8.876"/>
	<rect x="145.885" y="8.122" fill="#FFFFFF" width="3.323" height="8.876"/>
	<polygon fill="#0A1C29" points="228.462,111.033 251.98,110.899 236.462,17.167 	"/>
	<path fill="#B5A95B" d="M159.315,97.708c-10.832,0-19.613,13.779-19.613,13.779h39.226
		C178.928,111.487,170.147,97.708,159.315,97.708z"/>
	<path fill="#858043" d="M198.541,97.574c-10.832,0-19.613,13.779-19.613,13.779h39.226
		C218.153,111.353,209.372,97.574,198.541,97.574z"/>
	<path fill="#858043" d="M120.09,97.574c-10.832,0-19.613,13.779-19.613,13.779h39.226
		C139.702,111.353,130.921,97.574,120.09,97.574z"/>
</g>
<polygon fill="#FFFFFF" points="438.969,106.162 450.237,49.353 478.957,49.321 514.843,49.281 537.924,101.267 "/>
<polygon fill="#2CB1A7" points="449.787,51.721 460.434,51.71 460.493,105.097 438.969,106.162 "/>
<polygon fill="#2CB1A7" points="463.174,51.707 501.571,51.664 521.56,102.259 463.233,104.97 "/>
<polygon fill="#0A1C29" points="546.959,106.202 390.937,113.376 390.931,108.431 542.668,101.262 "/>
<polygon fill="#E55132" points="537.641,126.156 509.285,126.187 403.587,126.304 390.937,113.376 546.959,106.202 "/>
<path fill="#C3BD98" d="M431.423,125.855c0.006,5.664-4.58,10.26-10.248,10.266c-5.664,0.006-10.256-4.58-10.262-10.244
	c-0.006-5.667,4.575-10.263,10.24-10.269C426.82,115.603,431.416,120.189,431.423,125.855z"/>
<path fill="#141414" d="M428.504,125.858c0.004,4.05-3.28,7.336-7.328,7.34c-4.053,0.004-7.34-3.274-7.345-7.324
	c-0.004-4.051,3.276-7.338,7.329-7.343C425.208,118.528,428.499,121.808,428.504,125.858z"/>
<circle fill="#FFFFFF" cx="421.167" cy="125.867" r="2.784"/>
<path fill="#C3BD98" d="M516.689,125.761c0.006,5.664-4.58,10.26-10.248,10.266c-5.664,0.006-10.256-4.58-10.262-10.244
	c-0.006-5.667,4.575-10.263,10.24-10.269C512.087,115.508,516.683,120.094,516.689,125.761z"/>
<path fill="#141414" d="M513.771,125.764c0.005,4.05-3.28,7.336-7.328,7.34c-4.053,0.004-7.34-3.274-7.345-7.324
	c-0.004-4.051,3.276-7.338,7.329-7.343C510.474,118.433,513.766,121.714,513.771,125.764z"/>
<circle fill="#FFFFFF" cx="506.434" cy="125.772" r="2.784"/>
<polygon opacity="0.2" fill="#010101" points="449.787,51.721 460.434,51.71 460.493,105.097 438.969,106.162 "/>
<polygon fill="#FFFFFF" points="9.471,73.247 9.471,52.735 52.232,52.735 "/>
<path fill="#FFFFFF" d="M48.637,70.903l47.138-47.138c0,0-32.209,11.459-45.226,24.476C37.532,61.258,48.637,70.903,48.637,70.903z"
	/>
<path fill="#FFFFFF" d="M38.046,52.735L38.046,52.735c0,11.329,9.184,20.512,20.512,20.512c11.329,0,20.512-9.183,20.512-20.512v0
	H38.046z"/>
<path fill="#FFFFFF" d="M79.07,52.735L79.07,52.735c0,4.126,3.345,7.471,7.471,7.471c4.126,0,7.472-3.345,7.472-7.471l0,0H79.07z"/>
<polygon fill="#EC5B68" points="88.408,59.971 90.671,52.735 116.201,52.735 "/>
<g>
	<circle fill="#D4C73C" cx="85.041" cy="55.419" r="2.183"/>
	<path fill="#EC5B68" d="M82.857,55.413c-0.004,1.205,0.971,2.186,2.177,2.19l0.013-4.367
		C83.841,53.232,82.861,54.206,82.857,55.413z"/>
	<circle fill="#020202" cx="85.02" cy="55.419" r="1.25"/>
	<circle fill="#D6D5D5" cx="86.27" cy="55.531" r="0.547"/>
</g>
<path fill="#FFFFFF" d="M58.447,61.845l-47.138,47.138c0,0,32.877-11.923,45.894-24.94C70.22,71.026,58.447,61.845,58.447,61.845z"
	/>
</svg>
