<?xml version="1.0" encoding="utf-8"?>
<!-- Generator: Adobe Illustrator 17.0.0, SVG Export Plug-In . SVG Version: 6.00 Build 0)  -->
<!DOCTYPE svg PUBLIC "-//W3C//DTD SVG 1.1//EN" "http://www.w3.org/Graphics/SVG/1.1/DTD/svg11.dtd">
<svg version="1.1" id="Layer_1" xmlns="http://www.w3.org/2000/svg" xmlns:xlink="http://www.w3.org/1999/xlink" x="0px" y="0px"
	 width="229.807px" height="193.857px" viewBox="0 0 229.807 193.857" enable-background="new 0 0 229.807 193.857"
	 xml:space="preserve">
<polygon fill="#0A1C29" points="163.717,184.681 160.632,184.681 160.632,88.451 192.216,113.264 "/>
<polygon fill="#020202" points="192.216,187.519 160.632,185.458 160.632,176.839 "/>
<polygon fill="#0A1C29" points="142.224,191.019 139.139,191.019 139.139,94.789 179.146,94.789 "/>
<polygon fill="#020202" points="170.723,193.857 139.139,191.796 139.139,183.177 "/>
<path fill="#0A1C29" d="M229.787,56.796c0,0,2.682,58.46-54.421,58.46C48.173,115.256,0,56.916,0,56.916s64.746-0.151,168.974-0.12
	C186.844,56.802,207.869,56.796,229.787,56.796z"/>
<path fill="#0A1C29" d="M107.493,33.734h61.178c0,0,22.564-25.095,0-25.095C146.106,8.638,107.493,33.734,107.493,33.734z"/>
<path fill="#0A1C29" d="M206.734,58.77c-17.224-0.384-37.791-1.877-37.791-1.877l-0.168-56.887c0,0,53.393-1.84,61.031,56.828"/>
<path fill="#D4C73C" d="M184.282,13.156c-5.325,0.016-9.63,4.34-9.614,9.667c0.015,5.323,4.345,9.627,9.67,9.612
	c5.322-0.015,9.627-4.345,9.612-9.667C193.934,17.441,189.605,13.141,184.282,13.156z"/>
<path fill="#EC5B68" d="M193.95,22.768c0.015,5.323-4.289,9.652-9.612,9.667l-0.056-19.279
	C189.605,13.141,193.934,17.441,193.95,22.768z"/>
<circle fill="#020202" cx="184.399" cy="22.795" r="5.518"/>
<circle fill="#D6D5D5" cx="178.881" cy="23.293" r="2.415"/>
<path fill="#0A1C29" d="M192.216,105.047c0,21.591-17.502,39.096-39.099,39.096c-21.594,0-39.096-17.506-39.096-39.096
	s17.502-39.096,39.096-39.096C174.714,65.951,192.216,83.457,192.216,105.047z"/>
</svg>
