<svg version="1.1" id="Layer_1" xmlns="http://www.w3.org/2000/svg" xmlns:xlink="http://www.w3.org/1999/xlink" x="0px" y="0px"
	 viewBox="0 0 80.304 124.731" enable-background="new 0 0 80.304 124.731" xml:space="preserve">
<g>
	<polygon fill="#E01E26" points="0.516,0 0.516,124.731 40.41,92.403 80.304,124.731 80.304,0 	"/>
	<path fill="#FFFFFF" d="M65.82,54.252l4.839-6.748c0.706-0.252,1.416-0.444,2.255-0.549c0-1.01-0.304-2.021-0.472-3.031h-9.605
		c-0.168,1.01-0.472,2.021-0.472,3.031c0.804,0.101,1.612,0.29,2.402,0.538L62.219,51.5c-1.192-2.965-2.885-5.531-4.538-7.577
		h-6.762c-0.168,1.01-0.472,2.021-0.472,3.031c0.934,0.115,1.696,0.336,2.472,0.626l5.098,6.752l-4.93,7.44
		c-0.787,0.297-1.552,0.521-2.5,0.636c0,1.01,0.304,2.021,0.472,3.035h9.36c0.168-1.014,0.476-2.024,0.476-3.035
		c-0.629-0.08-1.255-0.21-1.878-0.381l2.619-4.685c1.199,3.182,2.759,6.049,4.633,8.101h7.007c0.171-1.01,0.472-2.024,0.472-3.035
		c-0.923-0.112-1.682-0.332-2.451-0.619L65.82,54.252z M38.22,43.553c2.283,0,3.766,3.829,3.766,9.143
		c0,5.304-1.486,9.115-3.776,9.115c-2.287,0-3.766-3.787-3.766-9.059C34.443,47.403,35.926,43.553,38.22,43.553 M38.23,39.529
		c-5.898,0-9.783,5.336-9.783,13.237c0,7.804,3.871,13.07,9.748,13.07c5.902,0,9.786-5.301,9.786-13.16
		C47.982,44.829,44.111,39.529,38.23,39.529 M8.678,44.098v2.899c1.01,0.171,2.021,0.476,3.035,0.476
		c0.14-1.14,0.458-2.276,0.871-3.374l-0.028-0.056c0.524-0.105,1.094-0.171,1.71-0.171c2.678,0,4.147,1.185,4.147,3.115
		c0,2.189-1.892,3.101-4.608,3.573c-1.248,0.22-1.968,0.406-1.975,0.406c-0.647,1.346-0.563,2.713,0.241,3.993
		c0,0,1.783-0.545,4.021-0.895c1.538,0.766,2.626,2.185,2.626,3.818c0,2.157-1.871,3.612-4.783,3.612
		c-2.85,0-4.93-1.448-4.968-1.472c-0.783,0.727-1.199,1.93-1.094,3.346c0.182,0.091,2.633,2.465,7.636,2.465
		c6.042,0,9.437-3.255,9.437-7.412c0-2.853-1.608-4.86-4.287-6.014c2.248-1.489,3.514-3.745,3.514-6.115
		c0-4.056-3.57-6.759-8.738-6.759c-4.021,0-6.755,1.65-6.755,1.65V44.098z"/>
</g>
</svg>
