<svg version="1.1" id="Layer_1" xmlns="http://www.w3.org/2000/svg" xmlns:xlink="http://www.w3.org/1999/xlink" x="0px" y="0px"
	 viewBox="0 0 89.205 154.22" enable-background="new 0 0 89.205 154.22" xml:space="preserve">
<g>
	<polygon fill="#E01E26" points="0,14.768 0,154.22 44.602,118.076 89.205,154.22 89.205,14.768 	"/>
	<g>
		<defs>
			<rect id="SVGID_1_" x="0" width="89.205" height="154.22"/>
		</defs>
		<clipPath id="SVGID_2_">
			<use xlink:href="#SVGID_1_"  overflow="visible"/>
		</clipPath>
		<path clip-path="url(#SVGID_2_)" fill="#FFFFFF" d="M59.652,74.524l5.903-8.232c0.864-0.305,1.728-0.539,2.748-0.668
			c0-1.231-0.367-2.467-0.575-3.698H56.017c-0.207,1.235-0.579,2.467-0.579,3.698c0.985,0.125,1.966,0.356,2.932,0.657l-3.108,4.886
			c-1.454-3.616-3.518-6.743-5.539-9.241h-8.244c-0.207,1.231-0.579,2.467-0.579,3.698c1.141,0.141,2.068,0.41,3.018,0.766
			l6.215,8.232l-6.012,9.077c-0.958,0.36-1.896,0.633-3.049,0.774c0,1.231,0.371,2.467,0.579,3.702h11.414
			c0.207-1.235,0.579-2.471,0.579-3.702c-0.766-0.094-1.532-0.258-2.287-0.465l3.194-5.711c1.458,3.878,3.362,7.376,5.649,9.878
			h8.545c0.207-1.235,0.579-2.467,0.579-3.702c-1.13-0.137-2.052-0.403-2.99-0.754L59.652,74.524z M35.127,57.039
			c-1.392-0.184-2.815-0.418-4.237-0.422c-3.678,1.7-6.974,3.729-9.44,5.649c0.059,2.568,0.555,3.948,1.482,4.832
			c1.595-0.969,3.264-1.853,4.929-2.537v18.975c-1.763,0.59-4.108,0.907-5.684,1.267c0,1.126,0.41,2.22,0.95,3.377h4.695
			l10.828,0.027c0.207-1.239,0.579-2.482,0.579-3.721c-1.388-0.172-2.768-0.559-4.101-1.063V57.039z"/>
	</g>
</g>
</svg>