<?xml version="1.0" encoding="utf-8"?>
<!-- Generator: Adobe Illustrator 17.0.0, SVG Export Plug-In . SVG Version: 6.00 Build 0)  -->
<!DOCTYPE svg PUBLIC "-//W3C//DTD SVG 1.1//EN" "http://www.w3.org/Graphics/SVG/1.1/DTD/svg11.dtd">
<svg version="1.1" id="Layer_1" xmlns="http://www.w3.org/2000/svg" xmlns:xlink="http://www.w3.org/1999/xlink" x="0px" y="0px"
	 width="612px" height="89px" viewBox="0 0 612 89" enable-background="new 0 0 612 89" xml:space="preserve">
<g>
	<polyline fill="none" stroke="#FFFFFF" stroke-width="2" stroke-miterlimit="10" points="285.065,6.131 308.539,36.936 
		285.065,67.741 	"/>
	<line fill="none" stroke="#FFFFFF" stroke-width="2" stroke-miterlimit="10" x1="308.441" y1="36.936" x2="419.653" y2="36.936"/>
</g>
<polygon fill="#2A6C86" points="0.474,2.069 14.621,20 0.439,37.973 14.621,55.841 0.439,73.708 284.67,73.708 284.67,2.069 "/>
<g>
	<g opacity="0.8">
		<ellipse fill="#FFFFFF" cx="601.235" cy="43.069" rx="9.73" ry="30.772"/>
	</g>
	<g>
		<path fill="#F5F7DB" d="M550.521,72.756c0,2.6,2.108,4.708,4.706,4.708c2.602,0,4.708-2.108,4.708-4.708
			c0-2.598-2.106-4.706-4.708-4.706C552.629,68.05,550.521,70.158,550.521,72.756"/>
	</g>
	<g opacity="0.2">
		<g>
			<defs>
				<rect id="SVGID_1_" x="550.522" y="71.86" width="9.412" height="5.602"/>
			</defs>
			<clipPath id="SVGID_2_">
				<use xlink:href="#SVGID_1_"  overflow="visible"/>
			</clipPath>
			<g clip-path="url(#SVGID_2_)">
				<g>
					<defs>
						<path id="SVGID_3_" d="M555.226,75.672c-2.291,0-4.197-1.641-4.616-3.811c-0.054,0.292-0.09,0.588-0.09,0.897
							c0,2.6,2.108,4.706,4.706,4.706c2.602,0,4.708-2.106,4.708-4.706c0-0.309-0.035-0.605-0.09-0.897
							C559.425,74.031,557.522,75.672,555.226,75.672"/>
					</defs>
					<clipPath id="SVGID_4_">
						<use xlink:href="#SVGID_3_"  overflow="visible"/>
					</clipPath>
					<g clip-path="url(#SVGID_4_)">
						<g>
							<defs>
								<rect id="SVGID_5_" x="421.003" y="-25.646" width="160.989" height="160.989"/>
							</defs>
							<clipPath id="SVGID_6_">
								<use xlink:href="#SVGID_5_"  overflow="visible"/>
							</clipPath>
							<rect x="421.003" y="-25.646" clip-path="url(#SVGID_6_)" fill="#282C2F" width="160.99" height="160.99"/>
						</g>
					</g>
				</g>
			</g>
		</g>
	</g>
	<g>
		<g>
			<defs>
				<path id="SVGID_7_" d="M556.428,72.609c0,0.548-0.442,0.99-0.99,0.99s-0.992-0.442-0.992-0.99c0-0.55,0.444-0.995,0.992-0.995
					S556.428,72.059,556.428,72.609"/>
			</defs>
			<clipPath id="SVGID_8_">
				<use xlink:href="#SVGID_7_"  overflow="visible"/>
			</clipPath>
			<g clip-path="url(#SVGID_8_)">
				<g>
					<defs>
						<rect id="SVGID_9_" x="511.305" y="33.47" width="57.708" height="57.708"/>
					</defs>
					<clipPath id="SVGID_10_">
						<use xlink:href="#SVGID_9_"  overflow="visible"/>
					</clipPath>
					<rect x="511.305" y="33.47" clip-path="url(#SVGID_10_)" fill="#282C2F" width="57.708" height="57.708"/>
				</g>
			</g>
		</g>
	</g>
	<g>
		<path fill="#F26A2E" d="M557.146,19.815c0.263,1.266-1.349,2.677-3.605,3.14c-1.71,0.354-27.076,4.816-37.74,6.353
			c-3.44,0.496-2.404-0.45-2.404-0.45s36.929-10.031,39.187-10.496C554.842,17.895,556.884,18.549,557.146,19.815"/>
	</g>
	<g>
		<path fill="#B14578" d="M496.818,35.011L395.33,34.4c0,0-0.165,4.581,9.53,7.072c9.695,2.487,91.868,16.897,91.868,16.897
			s20.072,3.901,33.151,4.255c13.081,0.348,53.669,0.83,63.84-7.691c3.426-2.875,4.347-5.719,5.1-7.925
			c1.141-3.353,1.007-5.4,0.033-5.734c-1.616-0.548-30.977-6.943-30.977-6.943l-11.424-19.221L519.49,20.09L496.818,35.011z"/>
	</g>
	<g opacity="0.2">
		<g>
			<defs>
				<rect id="SVGID_11_" x="436.77" y="41.432" width="162.883" height="21.876"/>
			</defs>
			<clipPath id="SVGID_12_">
				<use xlink:href="#SVGID_11_"  overflow="visible"/>
			</clipPath>
			<g clip-path="url(#SVGID_12_)">
				<g>
					<defs>
						<path id="SVGID_13_" d="M598.866,41.436c0,0-0.01-0.002-0.013-0.004c-0.736,2.206-1.647,5.039-5.037,7.919
							c-10.114,8.586-50.707,8.361-63.79,8.094c-13.081-0.271-90.99-9.375-90.99-9.375l58.238,10.426c0,0,19.659,3.834,32.741,4.105
							c13.083,0.267,53.591,0.92,63.705-7.668c3.409-2.894,4.409-5.552,5.147-7.762C599.986,43.809,599.842,41.764,598.866,41.436"
							/>
					</defs>
					<clipPath id="SVGID_14_">
						<use xlink:href="#SVGID_13_"  overflow="visible"/>
					</clipPath>
					<g clip-path="url(#SVGID_14_)">
						<g>
							<defs>
								<rect id="SVGID_15_" x="446.794" y="-20.851" width="160.989" height="160.989"/>
							</defs>
							<clipPath id="SVGID_16_">
								<use xlink:href="#SVGID_15_"  overflow="visible"/>
							</clipPath>
							<rect x="446.794" y="-20.851" clip-path="url(#SVGID_16_)" fill="#282C2F" width="160.99" height="160.99"/>
						</g>
					</g>
					<g clip-path="url(#SVGID_14_)">
						<g>
							<defs>
								<rect id="SVGID_17_" x="285.805" y="-20.851" width="160.989" height="160.989"/>
							</defs>
							<clipPath id="SVGID_18_">
								<use xlink:href="#SVGID_17_"  overflow="visible"/>
							</clipPath>
							<rect x="285.805" y="-20.851" clip-path="url(#SVGID_18_)" fill="#282C2F" width="160.99" height="160.99"/>
						</g>
					</g>
				</g>
			</g>
		</g>
	</g>
	<g>
		<path fill="#F5F7DB" d="M466.92,34.831c0,0-18.68-3.508-24.524-7.464c-5.842-3.957-7.546-4.764-11.551-12.224
			c-4.003-7.464-11.105-19.695-24.68-10.521c-13.575,9.172-11.213,27.999-10.744,30.389"/>
	</g>
	<g>
		<polygon fill="#D2C53E" points="568.056,77.824 569.474,77.824 566.404,57.698 558.826,57.698 		"/>
	</g>
	<g opacity="0.2">
		<g>
			<defs>
				<rect id="SVGID_19_" x="558.826" y="57.697" width="9.839" height="20.128"/>
			</defs>
			<clipPath id="SVGID_20_">
				<use xlink:href="#SVGID_19_"  overflow="visible"/>
			</clipPath>
			<g clip-path="url(#SVGID_20_)">
				<g>
					<defs>
						<polygon id="SVGID_21_" points="568.056,77.824 568.665,77.826 560.389,58.561 558.826,57.698 						"/>
					</defs>
					<clipPath id="SVGID_22_">
						<use xlink:href="#SVGID_21_"  overflow="visible"/>
					</clipPath>
					<g clip-path="url(#SVGID_22_)">
						<g>
							<defs>
								<rect id="SVGID_23_" x="428.384" y="-18.328" width="160.989" height="160.989"/>
							</defs>
							<clipPath id="SVGID_24_">
								<use xlink:href="#SVGID_23_"  overflow="visible"/>
							</clipPath>
							<rect x="428.384" y="-18.329" clip-path="url(#SVGID_24_)" fill="#282C2F" width="160.99" height="160.99"/>
						</g>
					</g>
				</g>
			</g>
		</g>
	</g>
	<g>
		<polyline fill="#D2C53E" points="558.256,62.003 553.719,62.22 554.849,72.41 556.019,72.41 		"/>
	</g>
	<g>
		<path fill="#C2552D" d="M555.436,72.905c-0.329,0-0.592-0.265-0.592-0.592h1.184C556.028,72.64,555.763,72.905,555.436,72.905"/>
	</g>
	<g>
		<path fill="#F5F7DB" d="M562.966,77.824c0,3.15,2.552,5.698,5.696,5.698c3.148,0,5.7-2.548,5.7-5.698
			c0-3.146-2.552-5.696-5.7-5.696C565.518,72.128,562.966,74.678,562.966,77.824"/>
	</g>
	<g opacity="0.2">
		<g>
			<defs>
				<rect id="SVGID_25_" x="562.965" y="77.396" width="11.396" height="6.128"/>
			</defs>
			<clipPath id="SVGID_26_">
				<use xlink:href="#SVGID_25_"  overflow="visible"/>
			</clipPath>
			<g clip-path="url(#SVGID_26_)">
				<g>
					<defs>
						<path id="SVGID_27_" d="M568.663,82.668c-2.998,0-5.429-2.325-5.654-5.271c-0.01,0.144-0.042,0.279-0.042,0.427
							c0,3.148,2.55,5.698,5.696,5.698c3.148,0,5.698-2.55,5.698-5.698c0-0.148-0.031-0.284-0.042-0.427
							C574.096,80.343,571.663,82.668,568.663,82.668"/>
					</defs>
					<clipPath id="SVGID_28_">
						<use xlink:href="#SVGID_27_"  overflow="visible"/>
					</clipPath>
					<g clip-path="url(#SVGID_28_)">
						<g>
							<defs>
								<rect id="SVGID_29_" x="414.79" y="-18.328" width="160.989" height="160.989"/>
							</defs>
							<clipPath id="SVGID_30_">
								<use xlink:href="#SVGID_29_"  overflow="visible"/>
							</clipPath>
							<rect x="414.79" y="-18.329" clip-path="url(#SVGID_30_)" fill="#282C2F" width="160.99" height="160.99"/>
						</g>
					</g>
				</g>
			</g>
		</g>
	</g>
	<g>
		<g>
			<defs>
				<path id="SVGID_31_" d="M566.405,77.824c0,1.249,1.011,2.26,2.258,2.26c1.249,0,2.26-1.011,2.26-2.26
					c0-1.247-1.011-2.258-2.26-2.258C567.416,75.566,566.405,76.577,566.405,77.824"/>
			</defs>
			<clipPath id="SVGID_32_">
				<use xlink:href="#SVGID_31_"  overflow="visible"/>
			</clipPath>
			<g clip-path="url(#SVGID_32_)">
				<g>
					<defs>
						<rect id="SVGID_33_" x="529.955" y="46.19" width="41.652" height="41.652"/>
					</defs>
					<clipPath id="SVGID_34_">
						<use xlink:href="#SVGID_33_"  overflow="visible"/>
					</clipPath>
					<rect x="529.955" y="46.19" clip-path="url(#SVGID_34_)" fill="#282C2F" width="41.652" height="41.652"/>
				</g>
			</g>
		</g>
	</g>
	<g>
		<g>
			<defs>
				<path id="SVGID_35_" d="M568.663,75.941c1.18,0,2.122,0.915,2.22,2.07c0.006-0.065,0.04-0.119,0.04-0.188
					c0-1.245-1.011-2.258-2.26-2.258c-1.247,0-2.258,1.013-2.258,2.258c0,0.069,0.033,0.123,0.038,0.188
					C566.542,76.856,567.485,75.941,568.663,75.941"/>
			</defs>
			<clipPath id="SVGID_36_">
				<use xlink:href="#SVGID_35_"  overflow="visible"/>
			</clipPath>
			<g clip-path="url(#SVGID_36_)">
				<g>
					<defs>
						<rect id="SVGID_37_" x="434.034" y="-19.621" width="160.989" height="160.989"/>
					</defs>
					<clipPath id="SVGID_38_">
						<use xlink:href="#SVGID_37_"  overflow="visible"/>
					</clipPath>
					<rect x="434.034" y="-19.622" clip-path="url(#SVGID_38_)" fill="#058F91" width="160.99" height="160.99"/>
				</g>
			</g>
		</g>
	</g>
	<g>
		<path fill="#F5F7DB" d="M402.027,51.501c0,1.701,1.38,3.084,3.084,3.084s3.084-1.382,3.084-3.084c0-1.701-1.38-3.084-3.084-3.084
			S402.027,49.8,402.027,51.501"/>
	</g>
	<g>
		<g>
			<defs>
				<path id="SVGID_39_" d="M403.672,51.501c0,0.797,0.646,1.439,1.437,1.439c0.796,0,1.443-0.642,1.443-1.439
					c0-0.796-0.646-1.439-1.443-1.439C404.319,50.063,403.672,50.705,403.672,51.501"/>
			</defs>
			<clipPath id="SVGID_40_">
				<use xlink:href="#SVGID_39_"  overflow="visible"/>
			</clipPath>
			<g clip-path="url(#SVGID_40_)">
				<g>
					<defs>
						<rect id="SVGID_41_" x="363.761" y="45.315" width="41.652" height="41.652"/>
					</defs>
					<clipPath id="SVGID_42_">
						<use xlink:href="#SVGID_41_"  overflow="visible"/>
					</clipPath>
					<rect x="363.761" y="45.315" clip-path="url(#SVGID_42_)" fill="#282C2F" width="41.652" height="41.652"/>
				</g>
			</g>
			<g clip-path="url(#SVGID_40_)">
				<g>
					<defs>
						<rect id="SVGID_43_" x="405.413" y="45.315" width="41.652" height="41.652"/>
					</defs>
					<clipPath id="SVGID_44_">
						<use xlink:href="#SVGID_43_"  overflow="visible"/>
					</clipPath>
					<rect x="405.413" y="45.315" clip-path="url(#SVGID_44_)" fill="#282C2F" width="41.652" height="41.652"/>
				</g>
			</g>
		</g>
	</g>
	<g>
		<polyline fill="#F26A2E" points="404.707,51.493 410.47,41.504 414.235,42.065 405.461,51.493 		"/>
	</g>
	<g opacity="0.3">
		<g>
			<defs>
				<rect id="SVGID_45_" x="394.97" y="1.378" width="20.251" height="33.664"/>
			</defs>
			<clipPath id="SVGID_46_">
				<use xlink:href="#SVGID_45_"  overflow="visible"/>
			</clipPath>
			<g clip-path="url(#SVGID_46_)">
				<g>
					<defs>
						<path id="SVGID_47_" d="M407.215,4.652c2.967-2.004,5.623-2.986,8.006-3.217V1.379c-2.646,0.017-5.646,0.972-9.055,3.273
							c-13.577,9.172-11.213,27.999-10.744,30.389h1.049C396.002,32.651,393.638,13.824,407.215,4.652"/>
					</defs>
					<clipPath id="SVGID_48_">
						<use xlink:href="#SVGID_47_"  overflow="visible"/>
					</clipPath>
					<g clip-path="url(#SVGID_48_)">
						<g>
							<defs>
								<rect id="SVGID_49_" x="266.873" y="5.899" width="160.989" height="160.989"/>
							</defs>
							<clipPath id="SVGID_50_">
								<use xlink:href="#SVGID_49_"  overflow="visible"/>
							</clipPath>
							<rect x="266.873" y="5.899" clip-path="url(#SVGID_50_)" fill="#C4BF3D" width="160.99" height="160.99"/>
						</g>
					</g>
					<g clip-path="url(#SVGID_48_)">
						<g>
							<defs>
								<rect id="SVGID_51_" x="266.873" y="-155.09" width="160.989" height="160.989"/>
							</defs>
							<clipPath id="SVGID_52_">
								<use xlink:href="#SVGID_51_"  overflow="visible"/>
							</clipPath>
							<rect x="266.873" y="-155.09" clip-path="url(#SVGID_52_)" fill="#C4BF3D" width="160.99" height="160.99"/>
						</g>
					</g>
				</g>
			</g>
		</g>
	</g>
	<g>
		<path fill="#F5F7DB" d="M514.494,25.862c-0.204,0.033-0.398,0.108-0.573,0.221l-10.748,6.895c-0.571,0.367-0.832,1.067-0.64,1.716
			c0.19,0.653,0.788,1.099,1.466,1.099h60.085c0.542,0,1.047-0.288,1.32-0.757c0.275-0.469,0.279-1.051,0.012-1.524l-7.802-13.784
			c-0.321-0.561-0.949-0.861-1.583-0.759L514.494,25.862z"/>
	</g>
	<g>
		<g>
			<defs>
				<path id="SVGID_53_" d="M514.115,26.756c-0.204,0.033-0.398,0.108-0.573,0.221l-10.748,6.895
					c-0.571,0.367-0.832,1.067-0.64,1.716c0.19,0.653,0.788,1.099,1.466,1.099h60.085c0.542,0,1.047-0.288,1.32-0.757
					c0.275-0.469,0.279-1.051,0.012-1.524l-7.802-13.784c-0.321-0.561-0.949-0.861-1.583-0.759L514.115,26.756z"/>
			</defs>
			<clipPath id="SVGID_54_">
				<use xlink:href="#SVGID_53_"  overflow="visible"/>
			</clipPath>
			<g clip-path="url(#SVGID_54_)">
				<g>
					<defs>
						<rect id="SVGID_55_" x="445.627" y="-21.185" width="160.989" height="160.989"/>
					</defs>
					<clipPath id="SVGID_56_">
						<use xlink:href="#SVGID_55_"  overflow="visible"/>
					</clipPath>
					<rect x="445.627" y="-21.185" clip-path="url(#SVGID_56_)" fill="#058F91" width="160.99" height="160.99"/>
				</g>
			</g>
		</g>
	</g>
	<g>
		<polygon fill="#B14578" points="523.058,38.686 526.744,38.686 517.893,25.042 514.209,25.042 		"/>
	</g>
	<g>
		<polygon fill="#F5F7DB" points="521.164,36.686 521.95,36.686 514.824,25.696 514.196,25.942 		"/>
	</g>
	<g>
		<polygon fill="#B14578" points="546.524,38.686 550.21,38.686 540.526,20.853 536.837,20.853 		"/>
	</g>
	<g>
		<polygon fill="#F5F7DB" points="544.5,36.686 545.501,36.686 537.547,22.037 536.627,22.189 		"/>
	</g>
	<g>
		<g>
			<defs>
				<path id="SVGID_57_" d="M598.492,40.305v8.154C598.492,48.459,601.894,40.305,598.492,40.305"/>
			</defs>
			<clipPath id="SVGID_58_">
				<use xlink:href="#SVGID_57_"  overflow="visible"/>
			</clipPath>
			<g clip-path="url(#SVGID_58_)">
				<g>
					<defs>
						<rect id="SVGID_59_" x="589.698" y="13.654" width="41.652" height="63.22"/>
					</defs>
					<clipPath id="SVGID_60_">
						<use xlink:href="#SVGID_59_"  overflow="visible"/>
					</clipPath>
					<rect x="589.698" y="13.653" clip-path="url(#SVGID_60_)" fill="#282C2F" width="41.652" height="63.221"/>
				</g>
			</g>
		</g>
	</g>
	<g>
		<path fill="#F5F7DB" d="M599.394,40.172c3.221,0,3.926,2.898,3.926,2.898s-0.705,2.896-3.926,2.896V40.172z"/>
	</g>
	<g>
		<g>
			<defs>
				<rect id="SVGID_61_" x="598.66" y="41.149" width="0.734" height="3.966"/>
			</defs>
			<clipPath id="SVGID_62_">
				<use xlink:href="#SVGID_61_"  overflow="visible"/>
			</clipPath>
			<g clip-path="url(#SVGID_62_)">
				<g>
					<defs>
						<rect id="SVGID_63_" x="596.65" y="-84.672" width="40.299" height="148.861"/>
					</defs>
					<clipPath id="SVGID_64_">
						<use xlink:href="#SVGID_63_"  overflow="visible"/>
					</clipPath>
					<rect x="596.65" y="-84.672" clip-path="url(#SVGID_64_)" fill="#058F91" width="40.299" height="148.862"/>
				</g>
			</g>
		</g>
	</g>
	<g>
		<g>
			<defs>
				<rect id="SVGID_65_" x="599.394" y="40.025" width="0.657" height="6.088"/>
			</defs>
			<clipPath id="SVGID_66_">
				<use xlink:href="#SVGID_65_"  overflow="visible"/>
			</clipPath>
			<g clip-path="url(#SVGID_66_)">
				<g>
					<defs>
						<rect id="SVGID_67_" x="556.346" y="-28.734" width="48.71" height="81.833"/>
					</defs>
					<clipPath id="SVGID_68_">
						<use xlink:href="#SVGID_67_"  overflow="visible"/>
					</clipPath>
					<rect x="556.346" y="-28.734" clip-path="url(#SVGID_68_)" fill="#C4BF3D" width="48.71" height="81.834"/>
				</g>
			</g>
		</g>
	</g>
	<g>
		<path fill="#F5F7DB" d="M423.583,45.268c2.846,0.492,5.215,0.984,7.981,1.46h164.646c0.425-0.492,0.805-0.98,1.12-1.46H423.583z"
			/>
	</g>
	<g>
		<path fill="#F5F7DB" d="M438.887,48.044c2.998,0.515,5.575,1.003,8.238,1.46h146.507c0.477-0.304,1.499-1.291,1.68-1.46H438.887z"
			/>
	</g>
	<g>
		<path fill="#282C2F" d="M445.738,49.27c0.936,0.161,1.714,0.315,2.606,0.469h144.987c0.256-0.156,0.54-0.309,0.776-0.469H445.738z
			"/>
	</g>
	<g>
		<path fill="#282C2F" d="M430.378,46.493c0.913,0.156,1.741,0.313,2.64,0.469h164.672c0.14-0.158,0.292-0.315,0.419-0.469H430.378z
			"/>
	</g>
	<g>
		<g>
			<defs>
				<rect id="SVGID_69_" x="414.913" y="1.378" width="0.855" height="29.88"/>
			</defs>
			<clipPath id="SVGID_70_">
				<use xlink:href="#SVGID_69_"  overflow="visible"/>
			</clipPath>
			<g clip-path="url(#SVGID_70_)">
				<g>
					<defs>
						<rect id="SVGID_71_" x="260.014" y="-25.646" width="160.989" height="160.989"/>
					</defs>
					<clipPath id="SVGID_72_">
						<use xlink:href="#SVGID_71_"  overflow="visible"/>
					</clipPath>
					<rect x="260.014" y="-25.646" clip-path="url(#SVGID_72_)" fill="#058F91" width="160.99" height="160.99"/>
				</g>
			</g>
		</g>
	</g>
	<g opacity="0.2">
		<g>
			<defs>
				<rect id="SVGID_73_" x="414.483" y="1.378" width="0.857" height="29.88"/>
			</defs>
			<clipPath id="SVGID_74_">
				<use xlink:href="#SVGID_73_"  overflow="visible"/>
			</clipPath>
			<g clip-path="url(#SVGID_74_)">
				<rect x="414.485" y="1.378" fill="#282C2F" width="0.855" height="29.88"/>
			</g>
		</g>
	</g>
	<g>
		<g>
			<defs>
				<rect id="SVGID_75_" x="401.052" y="31.258" width="27.72" height="0.279"/>
			</defs>
			<clipPath id="SVGID_76_">
				<use xlink:href="#SVGID_75_"  overflow="visible"/>
			</clipPath>
			<g clip-path="url(#SVGID_76_)">
				<g>
					<defs>
						<rect id="SVGID_77_" x="285.805" y="-19.621" width="160.989" height="160.989"/>
					</defs>
					<clipPath id="SVGID_78_">
						<use xlink:href="#SVGID_77_"  overflow="visible"/>
					</clipPath>
					<rect x="285.805" y="-19.622" clip-path="url(#SVGID_78_)" fill="#FAAC61" width="160.99" height="160.99"/>
				</g>
			</g>
		</g>
	</g>
	<g opacity="0.2">
		<g>
			<defs>
				<rect id="SVGID_79_" x="401.052" y="31.399" width="27.72" height="0.277"/>
			</defs>
			<clipPath id="SVGID_80_">
				<use xlink:href="#SVGID_79_"  overflow="visible"/>
			</clipPath>
			<g clip-path="url(#SVGID_80_)">
				<rect x="401.052" y="31.397" fill="#282C2F" width="27.72" height="0.279"/>
			</g>
		</g>
	</g>
	<g opacity="0.2">
		<g>
			<defs>
				<rect id="SVGID_81_" x="430.198" y="14.021" width="35.997" height="21.023"/>
			</defs>
			<clipPath id="SVGID_82_">
				<use xlink:href="#SVGID_81_"  overflow="visible"/>
			</clipPath>
		</g>
	</g>
	<g>
		<path fill="#F26A2E" d="M404.707,51.892c0.404,0.39,2.679-2.469,2.679-2.469l-2.494,1.747
			C404.836,51.373,404.465,51.661,404.707,51.892"/>
	</g>
	<g>
		<path fill="#FAAC61" d="M562.491,59.163c0,0.261-0.213,0.473-0.473,0.473s-0.471-0.213-0.471-0.473
			c0-0.261,0.211-0.473,0.471-0.473S562.491,58.902,562.491,59.163"/>
	</g>
	<g>
		<path fill="#FAAC61" d="M565.423,59.163c0,0.261-0.213,0.473-0.473,0.473s-0.471-0.213-0.471-0.473
			c0-0.261,0.211-0.473,0.471-0.473S565.423,58.902,565.423,59.163"/>
	</g>
	<g>
		<polygon fill="#D4C73C" points="559.767,45.997 553.268,45.937 543.231,16.872 546.073,16.466 		"/>
	</g>
	<g opacity="0.2">
		<g>
			<defs>
				<rect id="SVGID_83_" x="543.231" y="16.686" width="13.538" height="29.283"/>
			</defs>
			<clipPath id="SVGID_84_">
				<use xlink:href="#SVGID_83_"  overflow="visible"/>
			</clipPath>
			<g clip-path="url(#SVGID_84_)">
				<g>
					<defs>
						<polygon id="SVGID_85_" points="556.768,45.969 553.267,45.936 543.232,16.873 544.546,16.686 						"/>
					</defs>
					<clipPath id="SVGID_86_">
						<use xlink:href="#SVGID_85_"  overflow="visible"/>
					</clipPath>
					<g clip-path="url(#SVGID_86_)">
						<g>
							<defs>
								<rect id="SVGID_87_" x="424.489" y="8.702" width="284.206" height="284.206"/>
							</defs>
							<clipPath id="SVGID_88_">
								<use xlink:href="#SVGID_87_"  overflow="visible"/>
							</clipPath>
							<rect x="424.489" y="8.701" clip-path="url(#SVGID_88_)" fill="#282C2F" width="284.206" height="284.206"/>
						</g>
					</g>
				</g>
			</g>
		</g>
	</g>
	<g>
		<path fill="#FAAC61" d="M557.482,44.568c0,0.169-0.138,0.304-0.307,0.304c-0.171,0-0.309-0.136-0.309-0.304
			c0-0.169,0.138-0.304,0.309-0.304C557.345,44.264,557.482,44.399,557.482,44.568"/>
	</g>
	<g>
		<path fill="#FAAC61" d="M555.312,44.568c0,0.169-0.138,0.304-0.307,0.304c-0.171,0-0.309-0.136-0.309-0.304
			c0-0.169,0.138-0.304,0.309-0.304C555.174,44.264,555.312,44.399,555.312,44.568"/>
	</g>
	<g>
		<rect x="551.072" y="45.807" fill="#F26A2E" width="9.447" height="0.392"/>
	</g>
	<g>
		<g>
			<defs>
				<path id="SVGID_89_" d="M401.052,31.798v1.555c0,3.025,6.209,5.471,13.859,5.471c7.652,0,13.861-2.446,13.861-5.471v-1.555
					H401.052z"/>
			</defs>
			<clipPath id="SVGID_90_">
				<use xlink:href="#SVGID_89_"  overflow="visible"/>
			</clipPath>
			<g clip-path="url(#SVGID_90_)">
				<g>
					<defs>
						<rect id="SVGID_91_" x="423.382" y="7.224" width="284.206" height="284.206"/>
					</defs>
					<clipPath id="SVGID_92_">
						<use xlink:href="#SVGID_91_"  overflow="visible"/>
					</clipPath>
					<rect x="423.382" y="7.223" clip-path="url(#SVGID_92_)" fill="#058F91" width="284.206" height="284.206"/>
				</g>
			</g>
			<g clip-path="url(#SVGID_90_)">
				<g>
					<defs>
						<rect id="SVGID_93_" x="139.176" y="7.224" width="284.206" height="284.206"/>
					</defs>
					<clipPath id="SVGID_94_">
						<use xlink:href="#SVGID_93_"  overflow="visible"/>
					</clipPath>
					<rect x="139.176" y="7.223" clip-path="url(#SVGID_94_)" fill="#058F91" width="284.206" height="284.206"/>
				</g>
			</g>
		</g>
	</g>
	<g>
		<path fill="#D2C53E" d="M401.052,31.258v1.555c0,3.023,6.209,5.471,13.859,5.471c7.652,0,13.861-2.448,13.861-5.471v-1.555
			H401.052z"/>
	</g>
	<g>
		<g>
			<defs>
				<polygon id="SVGID_95_" points="543.232,16.873 520.476,19.844 519.49,20.09 543.523,17.719 				"/>
			</defs>
			<clipPath id="SVGID_96_">
				<use xlink:href="#SVGID_95_"  overflow="visible"/>
			</clipPath>
			<g clip-path="url(#SVGID_96_)">
				<g>
					<defs>
						<rect id="SVGID_97_" x="446.794" y="-19.621" width="160.989" height="160.989"/>
					</defs>
					<clipPath id="SVGID_98_">
						<use xlink:href="#SVGID_97_"  overflow="visible"/>
					</clipPath>
					<rect x="446.794" y="-19.622" clip-path="url(#SVGID_98_)" fill="#282C2F" width="160.99" height="160.99"/>
				</g>
			</g>
		</g>
	</g>
	<g>
		<g>
			<defs>
				<polygon id="SVGID_99_" points="556.922,15.899 546.431,17.241 546.072,16.466 556.347,14.931 				"/>
			</defs>
			<clipPath id="SVGID_100_">
				<use xlink:href="#SVGID_99_"  overflow="visible"/>
			</clipPath>
			<g clip-path="url(#SVGID_100_)">
				<g>
					<defs>
						<rect id="SVGID_101_" x="422.883" y="6.344" width="284.206" height="284.206"/>
					</defs>
					<clipPath id="SVGID_102_">
						<use xlink:href="#SVGID_101_"  overflow="visible"/>
					</clipPath>
					<rect x="422.883" y="6.344" clip-path="url(#SVGID_102_)" fill="#282C2F" width="284.206" height="284.206"/>
				</g>
			</g>
		</g>
	</g>
	<g>
		<path fill="#F5F7DB" d="M556.426,15.439l-45.421,5.74l8.208-7.391c0,0,48.599-8.367,48.599-6.543
			C567.812,9.549,556.426,15.439,556.426,15.439"/>
	</g>
	<g>
		<path fill="#B14578" d="M567.7,7.563c-1.099,2.435-4.197,2.808-6.962,3.123c-2.004,0.252-28.819,2.919-39.039,3.599
			c-3.104,0.288-2.508-0.486-2.508-0.486s41.808-8.008,44.975-8.425C567.368,4.938,568.14,5.955,567.7,7.563"/>
	</g>
	<g>
		<path fill="#F26A2E" d="M560.486,9.581c-2.921,0.392-3.751,0.423-41.295,4.218c0,0-0.596,0.769,2.506,0.486
			c10.225-0.682,37.037-3.346,39.045-3.599c2.758-0.317,5.861-0.688,6.958-3.125c0.161-0.588-0.142,0.29,0.113-0.315
			C566.613,9.435,563.127,9.226,560.486,9.581"/>
	</g>
</g>
</svg>
