<svg version="1.1" id="airplane" xmlns="http://www.w3.org/2000/svg" xmlns:xlink="http://www.w3.org/1999/xlink" x="0px" y="0px"
	 viewBox="0 0 445 88" enable-background="new 0 0 445 88" xml:space="preserve">
<g>
	<polyline fill="none" stroke="#FFFFFF" stroke-width="2" stroke-miterlimit="10" points="193.687,12.06 209.048,32.218 
		193.687,52.376 	"/>
	<line fill="none" stroke="#FFFFFF" stroke-width="2" stroke-miterlimit="10" x1="208.984" y1="32.218" x2="281.757" y2="32.218"/>
</g>
<polygon fill="#2A6C86" points="7.462,9.403 16.719,21.136 7.439,32.897 16.719,44.588 7.439,56.28 193.429,56.28 193.429,9.403 "/>
<g>
	<g opacity="0.8">
		<ellipse fill="#FFFFFF" cx="400.577" cy="36.231" rx="6.367" ry="20.136"/>
	</g>
	<g>
		<path fill="#F5F7DB" d="M367.391,55.657c0,1.701,1.379,3.081,3.079,3.081c1.703,0,3.081-1.379,3.081-3.081
			c0-1.7-1.378-3.079-3.081-3.079C368.771,52.578,367.391,53.957,367.391,55.657"/>
	</g>
	<g opacity="0.2">
		<g>
			<defs>
				<rect id="SVGID_1_" x="367.392" y="55.071" width="6.159" height="3.666"/>
			</defs>
			<clipPath id="SVGID_2_">
				<use xlink:href="#SVGID_1_"  overflow="visible"/>
			</clipPath>
			<g clip-path="url(#SVGID_2_)">
				<g>
					<defs>
						<path id="SVGID_3_" d="M370.47,57.565c-1.499,0-2.746-1.074-3.021-2.494c-0.035,0.191-0.059,0.385-0.059,0.587
							c0,1.701,1.379,3.079,3.079,3.079c1.703,0,3.081-1.378,3.081-3.079c0-0.202-0.023-0.396-0.059-0.587
							C373.218,56.491,371.973,57.565,370.47,57.565"/>
					</defs>
					<clipPath id="SVGID_4_">
						<use xlink:href="#SVGID_3_"  overflow="visible"/>
					</clipPath>
					<g clip-path="url(#SVGID_4_)">
						<g>
							<defs>
								<rect id="SVGID_5_" x="282.64" y="-8.733" width="105.345" height="105.345"/>
							</defs>
							<clipPath id="SVGID_6_">
								<use xlink:href="#SVGID_5_"  overflow="visible"/>
							</clipPath>
							<rect x="282.64" y="-8.734" clip-path="url(#SVGID_6_)" fill="#282C2F" width="105.345" height="105.345"/>
						</g>
					</g>
				</g>
			</g>
		</g>
	</g>
	<g>
		<g>
			<defs>
				<path id="SVGID_7_" d="M371.257,55.561c0,0.359-0.289,0.648-0.648,0.648s-0.649-0.289-0.649-0.648
					c0-0.36,0.291-0.651,0.649-0.651S371.257,55.201,371.257,55.561"/>
			</defs>
			<clipPath id="SVGID_8_">
				<use xlink:href="#SVGID_7_"  overflow="visible"/>
			</clipPath>
			<g clip-path="url(#SVGID_8_)">
				<g>
					<defs>
						<rect id="SVGID_9_" x="341.73" y="29.95" width="37.762" height="37.762"/>
					</defs>
					<clipPath id="SVGID_10_">
						<use xlink:href="#SVGID_9_"  overflow="visible"/>
					</clipPath>
					<rect x="341.73" y="29.95" clip-path="url(#SVGID_10_)" fill="#282C2F" width="37.762" height="37.762"/>
				</g>
			</g>
		</g>
	</g>
	<g>
		<path fill="#F26A2E" d="M371.727,21.015c0.172,0.828-0.883,1.752-2.359,2.055c-1.119,0.232-17.717,3.152-24.696,4.157
			c-2.251,0.325-1.573-0.295-1.573-0.295s24.165-6.564,25.643-6.868C370.219,19.758,371.555,20.187,371.727,21.015"/>
	</g>
	<g>
		<path fill="#B14578" d="M332.251,30.958l-66.41-0.4c0,0-0.108,2.997,6.236,4.628c6.344,1.628,60.115,11.056,60.115,11.056
			s13.134,2.553,21.693,2.785c8.56,0.228,35.119,0.543,41.774-5.033c2.242-1.881,2.845-3.742,3.337-5.186
			c0.746-2.194,0.659-3.534,0.022-3.752c-1.057-0.359-20.27-4.543-20.27-4.543l-7.475-12.578l-24.187,3.259L332.251,30.958z"/>
	</g>
	<g opacity="0.2">
		<g>
			<defs>
				<rect id="SVGID_11_" x="292.957" y="35.16" width="106.584" height="14.315"/>
			</defs>
			<clipPath id="SVGID_12_">
				<use xlink:href="#SVGID_11_"  overflow="visible"/>
			</clipPath>
			<g clip-path="url(#SVGID_12_)">
				<g>
					<defs>
						<path id="SVGID_13_" d="M399.027,35.163c0,0-0.007-0.001-0.008-0.003c-0.482,1.443-1.078,3.298-3.296,5.182
							c-6.618,5.618-33.18,5.471-41.742,5.296c-8.56-0.177-59.54-6.135-59.54-6.135l38.108,6.822c0,0,12.864,2.509,21.424,2.686
							c8.561,0.175,35.068,0.602,41.686-5.017c2.231-1.894,2.885-3.633,3.368-5.079C399.759,36.715,399.665,35.377,399.027,35.163"
							/>
					</defs>
					<clipPath id="SVGID_14_">
						<use xlink:href="#SVGID_13_"  overflow="visible"/>
					</clipPath>
					<g clip-path="url(#SVGID_14_)">
						<g>
							<defs>
								<rect id="SVGID_15_" x="299.517" y="-5.596" width="105.345" height="105.345"/>
							</defs>
							<clipPath id="SVGID_16_">
								<use xlink:href="#SVGID_15_"  overflow="visible"/>
							</clipPath>
							<rect x="299.517" y="-5.596" clip-path="url(#SVGID_16_)" fill="#282C2F" width="105.345" height="105.345"/>
						</g>
					</g>
					<g clip-path="url(#SVGID_14_)">
						<g>
							<defs>
								<rect id="SVGID_17_" x="194.172" y="-5.596" width="105.345" height="105.345"/>
							</defs>
							<clipPath id="SVGID_18_">
								<use xlink:href="#SVGID_17_"  overflow="visible"/>
							</clipPath>
							<rect x="194.172" y="-5.596" clip-path="url(#SVGID_18_)" fill="#282C2F" width="105.345" height="105.345"/>
						</g>
					</g>
				</g>
			</g>
		</g>
	</g>
	<g>
		<path fill="#F5F7DB" d="M312.686,30.84c0,0-12.223-2.296-16.047-4.884c-3.823-2.59-4.938-3.117-7.558-7.999
			c-2.62-4.884-7.266-12.887-16.15-6.884c-8.883,6.002-7.337,18.322-7.03,19.885"/>
	</g>
	<g>
		<polygon fill="#D2C53E" points="378.866,58.973 379.793,58.973 377.785,45.804 372.826,45.804 		"/>
	</g>
	<g opacity="0.2">
		<g>
			<defs>
				<rect id="SVGID_19_" x="372.826" y="45.803" width="6.438" height="13.171"/>
			</defs>
			<clipPath id="SVGID_20_">
				<use xlink:href="#SVGID_19_"  overflow="visible"/>
			</clipPath>
			<g clip-path="url(#SVGID_20_)">
				<g>
					<defs>
						<polygon id="SVGID_21_" points="378.866,58.973 379.264,58.975 373.849,46.368 372.826,45.804 						"/>
					</defs>
					<clipPath id="SVGID_22_">
						<use xlink:href="#SVGID_21_"  overflow="visible"/>
					</clipPath>
					<g clip-path="url(#SVGID_22_)">
						<g>
							<defs>
								<rect id="SVGID_23_" x="287.47" y="-3.945" width="105.345" height="105.345"/>
							</defs>
							<clipPath id="SVGID_24_">
								<use xlink:href="#SVGID_23_"  overflow="visible"/>
							</clipPath>
							<rect x="287.47" y="-3.945" clip-path="url(#SVGID_24_)" fill="#282C2F" width="105.345" height="105.345"/>
						</g>
					</g>
				</g>
			</g>
		</g>
	</g>
	<g>
		<polyline fill="#D2C53E" points="372.453,48.621 369.484,48.763 370.224,55.43 370.989,55.43 		"/>
	</g>
	<g>
		<path fill="#C2552D" d="M370.608,55.754c-0.216,0-0.388-0.173-0.388-0.387h0.775C370.995,55.581,370.822,55.754,370.608,55.754"/>
	</g>
	<g>
		<path fill="#F5F7DB" d="M375.535,58.973c0,2.062,1.67,3.729,3.727,3.729c2.06,0,3.73-1.667,3.73-3.729
			c0-2.059-1.67-3.727-3.73-3.727C377.205,55.246,375.535,56.915,375.535,58.973"/>
	</g>
	<g opacity="0.2">
		<g>
			<defs>
				<rect id="SVGID_25_" x="375.534" y="58.693" width="7.457" height="4.01"/>
			</defs>
			<clipPath id="SVGID_26_">
				<use xlink:href="#SVGID_25_"  overflow="visible"/>
			</clipPath>
			<g clip-path="url(#SVGID_26_)">
				<g>
					<defs>
						<path id="SVGID_27_" d="M379.263,62.143c-1.962,0-3.553-1.521-3.7-3.449c-0.007,0.094-0.027,0.183-0.027,0.28
							c0,2.06,1.669,3.729,3.727,3.729c2.06,0,3.729-1.669,3.729-3.729c0-0.097-0.02-0.186-0.027-0.28
							C382.818,60.622,381.226,62.143,379.263,62.143"/>
					</defs>
					<clipPath id="SVGID_28_">
						<use xlink:href="#SVGID_27_"  overflow="visible"/>
					</clipPath>
					<g clip-path="url(#SVGID_28_)">
						<g>
							<defs>
								<rect id="SVGID_29_" x="278.574" y="-3.945" width="105.345" height="105.345"/>
							</defs>
							<clipPath id="SVGID_30_">
								<use xlink:href="#SVGID_29_"  overflow="visible"/>
							</clipPath>
							<rect x="278.574" y="-3.945" clip-path="url(#SVGID_30_)" fill="#282C2F" width="105.345" height="105.345"/>
						</g>
					</g>
				</g>
			</g>
		</g>
	</g>
	<g>
		<g>
			<defs>
				<path id="SVGID_31_" d="M377.785,58.973c0,0.817,0.662,1.479,1.478,1.479c0.817,0,1.479-0.662,1.479-1.479
					c0-0.816-0.662-1.478-1.479-1.478C378.447,57.496,377.785,58.158,377.785,58.973"/>
			</defs>
			<clipPath id="SVGID_32_">
				<use xlink:href="#SVGID_31_"  overflow="visible"/>
			</clipPath>
			<g clip-path="url(#SVGID_32_)">
				<g>
					<defs>
						<rect id="SVGID_33_" x="353.934" y="38.274" width="27.256" height="27.256"/>
					</defs>
					<clipPath id="SVGID_34_">
						<use xlink:href="#SVGID_33_"  overflow="visible"/>
					</clipPath>
					<rect x="353.934" y="38.274" clip-path="url(#SVGID_34_)" fill="#282C2F" width="27.256" height="27.256"/>
				</g>
			</g>
		</g>
	</g>
	<g>
		<g>
			<defs>
				<path id="SVGID_35_" d="M379.263,57.741c0.772,0,1.389,0.599,1.453,1.355c0.004-0.042,0.026-0.078,0.026-0.123
					c0-0.814-0.662-1.478-1.479-1.478c-0.816,0-1.478,0.663-1.478,1.478c0,0.045,0.022,0.08,0.025,0.123
					C377.875,58.34,378.492,57.741,379.263,57.741"/>
			</defs>
			<clipPath id="SVGID_36_">
				<use xlink:href="#SVGID_35_"  overflow="visible"/>
			</clipPath>
			<g clip-path="url(#SVGID_36_)">
				<g>
					<defs>
						<rect id="SVGID_37_" x="291.167" y="-4.791" width="105.345" height="105.345"/>
					</defs>
					<clipPath id="SVGID_38_">
						<use xlink:href="#SVGID_37_"  overflow="visible"/>
					</clipPath>
					<rect x="291.167" y="-4.791" clip-path="url(#SVGID_38_)" fill="#058F91" width="105.345" height="105.345"/>
				</g>
			</g>
		</g>
	</g>
	<g>
		<path fill="#F5F7DB" d="M270.223,41.749c0,1.113,0.903,2.018,2.018,2.018c1.115,0,2.018-0.905,2.018-2.018
			c0-1.113-0.903-2.018-2.018-2.018C271.126,39.731,270.223,40.636,270.223,41.749"/>
	</g>
	<g>
		<g>
			<defs>
				<path id="SVGID_39_" d="M271.299,41.749c0,0.521,0.423,0.941,0.94,0.941c0.521,0,0.944-0.42,0.944-0.941
					c0-0.521-0.423-0.941-0.944-0.941C271.722,40.807,271.299,41.228,271.299,41.749"/>
			</defs>
			<clipPath id="SVGID_40_">
				<use xlink:href="#SVGID_39_"  overflow="visible"/>
			</clipPath>
			<g clip-path="url(#SVGID_40_)">
				<g>
					<defs>
						<rect id="SVGID_41_" x="245.183" y="37.701" width="27.256" height="27.256"/>
					</defs>
					<clipPath id="SVGID_42_">
						<use xlink:href="#SVGID_41_"  overflow="visible"/>
					</clipPath>
					<rect x="245.183" y="37.701" clip-path="url(#SVGID_42_)" fill="#282C2F" width="27.256" height="27.256"/>
				</g>
			</g>
			<g clip-path="url(#SVGID_40_)">
				<g>
					<defs>
						<rect id="SVGID_43_" x="272.439" y="37.701" width="27.256" height="27.256"/>
					</defs>
					<clipPath id="SVGID_44_">
						<use xlink:href="#SVGID_43_"  overflow="visible"/>
					</clipPath>
					<rect x="272.439" y="37.701" clip-path="url(#SVGID_44_)" fill="#282C2F" width="27.256" height="27.256"/>
				</g>
			</g>
		</g>
	</g>
	<g>
		<polyline fill="#F26A2E" points="271.976,41.743 275.747,35.207 278.211,35.574 272.47,41.743 		"/>
	</g>
	<g opacity="0.3">
		<g>
			<defs>
				<rect id="SVGID_45_" x="265.605" y="8.95" width="13.252" height="22.028"/>
			</defs>
			<clipPath id="SVGID_46_">
				<use xlink:href="#SVGID_45_"  overflow="visible"/>
			</clipPath>
			<g clip-path="url(#SVGID_46_)">
				<g>
					<defs>
						<path id="SVGID_47_" d="M273.618,11.093c1.941-1.311,3.68-1.954,5.239-2.105V8.951c-1.731,0.011-3.695,0.636-5.925,2.142
							c-8.885,6.002-7.337,18.322-7.03,19.885h0.686C266.28,29.414,264.733,17.094,273.618,11.093"/>
					</defs>
					<clipPath id="SVGID_48_">
						<use xlink:href="#SVGID_47_"  overflow="visible"/>
					</clipPath>
					<g clip-path="url(#SVGID_48_)">
						<g>
							<defs>
								<rect id="SVGID_49_" x="181.783" y="11.909" width="105.345" height="105.345"/>
							</defs>
							<clipPath id="SVGID_50_">
								<use xlink:href="#SVGID_49_"  overflow="visible"/>
							</clipPath>
							<rect x="181.783" y="11.909" clip-path="url(#SVGID_50_)" fill="#C4BF3D" width="105.345" height="105.345"/>
						</g>
					</g>
					<g clip-path="url(#SVGID_48_)">
						<g>
							<defs>
								<rect id="SVGID_51_" x="181.783" y="-93.436" width="105.345" height="105.345"/>
							</defs>
							<clipPath id="SVGID_52_">
								<use xlink:href="#SVGID_51_"  overflow="visible"/>
							</clipPath>
							<rect x="181.783" y="-93.437" clip-path="url(#SVGID_52_)" fill="#C4BF3D" width="105.345" height="105.345"/>
						</g>
					</g>
				</g>
			</g>
		</g>
	</g>
	<g>
		<path fill="#F5F7DB" d="M343.817,24.972c-0.134,0.022-0.261,0.071-0.375,0.145l-7.033,4.512c-0.374,0.24-0.544,0.699-0.419,1.123
			c0.124,0.427,0.516,0.719,0.959,0.719h39.317c0.355,0,0.685-0.188,0.864-0.495c0.18-0.307,0.183-0.688,0.008-0.997l-5.105-9.02
			c-0.21-0.367-0.621-0.563-1.036-0.497L343.817,24.972z"/>
	</g>
	<g>
		<g>
			<defs>
				<path id="SVGID_53_" d="M343.569,25.557c-0.134,0.022-0.261,0.071-0.375,0.145l-7.033,4.512
					c-0.374,0.24-0.544,0.699-0.419,1.123c0.124,0.427,0.516,0.719,0.959,0.719h39.317c0.355,0,0.685-0.188,0.864-0.495
					c0.18-0.307,0.183-0.688,0.008-0.997l-5.105-9.02c-0.21-0.367-0.621-0.563-1.036-0.497L343.569,25.557z"/>
			</defs>
			<clipPath id="SVGID_54_">
				<use xlink:href="#SVGID_53_"  overflow="visible"/>
			</clipPath>
			<g clip-path="url(#SVGID_54_)">
				<g>
					<defs>
						<rect id="SVGID_55_" x="298.753" y="-5.814" width="105.345" height="105.345"/>
					</defs>
					<clipPath id="SVGID_56_">
						<use xlink:href="#SVGID_55_"  overflow="visible"/>
					</clipPath>
					<rect x="298.753" y="-5.814" clip-path="url(#SVGID_56_)" fill="#058F91" width="105.345" height="105.345"/>
				</g>
			</g>
		</g>
	</g>
	<g>
		<polygon fill="#B14578" points="349.421,33.363 351.833,33.363 346.041,24.435 343.63,24.435 		"/>
	</g>
	<g>
		<polygon fill="#F5F7DB" points="348.182,32.055 348.696,32.055 344.033,24.863 343.622,25.024 		"/>
	</g>
	<g>
		<polygon fill="#B14578" points="364.776,33.363 367.188,33.363 360.851,21.694 358.437,21.694 		"/>
	</g>
	<g>
		<polygon fill="#F5F7DB" points="363.452,32.055 364.107,32.055 358.902,22.469 358.3,22.568 		"/>
	</g>
	<g>
		<g>
			<defs>
				<path id="SVGID_57_" d="M398.782,34.422v5.336C398.782,39.758,401.008,34.422,398.782,34.422"/>
			</defs>
			<clipPath id="SVGID_58_">
				<use xlink:href="#SVGID_57_"  overflow="visible"/>
			</clipPath>
			<g clip-path="url(#SVGID_58_)">
				<g>
					<defs>
						<rect id="SVGID_59_" x="393.028" y="16.983" width="27.256" height="41.369"/>
					</defs>
					<clipPath id="SVGID_60_">
						<use xlink:href="#SVGID_59_"  overflow="visible"/>
					</clipPath>
					<rect x="393.028" y="16.983" clip-path="url(#SVGID_60_)" fill="#282C2F" width="27.256" height="41.369"/>
				</g>
			</g>
		</g>
	</g>
	<g>
		<path fill="#F5F7DB" d="M399.372,34.336c2.108,0,2.569,1.896,2.569,1.896s-0.461,1.895-2.569,1.895V34.336z"/>
	</g>
	<g>
		<g>
			<defs>
				<rect id="SVGID_61_" x="398.892" y="34.975" width="0.48" height="2.595"/>
			</defs>
			<clipPath id="SVGID_62_">
				<use xlink:href="#SVGID_61_"  overflow="visible"/>
			</clipPath>
			<g clip-path="url(#SVGID_62_)">
				<g>
					<defs>
						<rect id="SVGID_63_" x="397.576" y="-47.358" width="26.37" height="97.409"/>
					</defs>
					<clipPath id="SVGID_64_">
						<use xlink:href="#SVGID_63_"  overflow="visible"/>
					</clipPath>
					<rect x="397.576" y="-47.358" clip-path="url(#SVGID_64_)" fill="#058F91" width="26.37" height="97.409"/>
				</g>
			</g>
		</g>
	</g>
	<g>
		<g>
			<defs>
				<rect id="SVGID_65_" x="399.372" y="34.239" width="0.43" height="3.984"/>
			</defs>
			<clipPath id="SVGID_66_">
				<use xlink:href="#SVGID_65_"  overflow="visible"/>
			</clipPath>
			<g clip-path="url(#SVGID_66_)">
				<g>
					<defs>
						<rect id="SVGID_67_" x="371.203" y="-10.754" width="31.874" height="53.549"/>
					</defs>
					<clipPath id="SVGID_68_">
						<use xlink:href="#SVGID_67_"  overflow="visible"/>
					</clipPath>
					<rect x="371.203" y="-10.754" clip-path="url(#SVGID_68_)" fill="#C4BF3D" width="31.874" height="53.549"/>
				</g>
			</g>
		</g>
	</g>
	<g>
		<path fill="#F5F7DB" d="M284.328,37.67c1.862,0.322,3.412,0.644,5.223,0.955h107.738c0.278-0.322,0.527-0.641,0.733-0.955H284.328
			z"/>
	</g>
	<g>
		<path fill="#F5F7DB" d="M294.343,39.486c1.962,0.337,3.648,0.656,5.39,0.955h95.869c0.312-0.199,0.981-0.845,1.1-0.955H294.343z"
			/>
	</g>
	<g>
		<path fill="#282C2F" d="M298.826,40.289c0.613,0.105,1.121,0.206,1.705,0.307h94.874c0.168-0.102,0.353-0.202,0.508-0.307H298.826
			z"/>
	</g>
	<g>
		<path fill="#282C2F" d="M288.775,38.472c0.598,0.102,1.139,0.205,1.727,0.307h107.755c0.091-0.104,0.191-0.206,0.274-0.307
			H288.775z"/>
	</g>
	<g>
		<g>
			<defs>
				<rect id="SVGID_69_" x="278.655" y="8.95" width="0.559" height="19.552"/>
			</defs>
			<clipPath id="SVGID_70_">
				<use xlink:href="#SVGID_69_"  overflow="visible"/>
			</clipPath>
			<g clip-path="url(#SVGID_70_)">
				<g>
					<defs>
						<rect id="SVGID_71_" x="177.295" y="-8.733" width="105.345" height="105.345"/>
					</defs>
					<clipPath id="SVGID_72_">
						<use xlink:href="#SVGID_71_"  overflow="visible"/>
					</clipPath>
					<rect x="177.295" y="-8.734" clip-path="url(#SVGID_72_)" fill="#058F91" width="105.345" height="105.345"/>
				</g>
			</g>
		</g>
	</g>
	<g opacity="0.2">
		<g>
			<defs>
				<rect id="SVGID_73_" x="278.374" y="8.95" width="0.561" height="19.552"/>
			</defs>
			<clipPath id="SVGID_74_">
				<use xlink:href="#SVGID_73_"  overflow="visible"/>
			</clipPath>
			<g clip-path="url(#SVGID_74_)">
				<rect x="278.375" y="8.95" fill="#282C2F" width="0.559" height="19.552"/>
			</g>
		</g>
	</g>
	<g>
		<g>
			<defs>
				<rect id="SVGID_75_" x="269.585" y="28.502" width="18.139" height="0.183"/>
			</defs>
			<clipPath id="SVGID_76_">
				<use xlink:href="#SVGID_75_"  overflow="visible"/>
			</clipPath>
			<g clip-path="url(#SVGID_76_)">
				<g>
					<defs>
						<rect id="SVGID_77_" x="194.172" y="-4.791" width="105.345" height="105.345"/>
					</defs>
					<clipPath id="SVGID_78_">
						<use xlink:href="#SVGID_77_"  overflow="visible"/>
					</clipPath>
					<rect x="194.172" y="-4.791" clip-path="url(#SVGID_78_)" fill="#FAAC61" width="105.345" height="105.345"/>
				</g>
			</g>
		</g>
	</g>
	<g opacity="0.2">
		<g>
			<defs>
				<rect id="SVGID_79_" x="269.585" y="28.595" width="18.139" height="0.181"/>
			</defs>
			<clipPath id="SVGID_80_">
				<use xlink:href="#SVGID_79_"  overflow="visible"/>
			</clipPath>
			<g clip-path="url(#SVGID_80_)">
				<rect x="269.585" y="28.594" fill="#282C2F" width="18.139" height="0.183"/>
			</g>
		</g>
	</g>
	<g opacity="0.2">
		<g>
			<defs>
				<rect id="SVGID_81_" x="288.657" y="17.223" width="23.555" height="13.757"/>
			</defs>
			<clipPath id="SVGID_82_">
				<use xlink:href="#SVGID_81_"  overflow="visible"/>
			</clipPath>
		</g>
	</g>
	<g>
		<path fill="#F26A2E" d="M271.976,42.005c0.265,0.255,1.753-1.615,1.753-1.615l-1.632,1.143
			C272.061,41.665,271.818,41.853,271.976,42.005"/>
	</g>
	<g>
		<path fill="#FAAC61" d="M375.224,46.762c0,0.171-0.139,0.31-0.31,0.31s-0.308-0.139-0.308-0.31c0-0.171,0.138-0.31,0.308-0.31
			S375.224,46.592,375.224,46.762"/>
	</g>
	<g>
		<path fill="#FAAC61" d="M377.143,46.762c0,0.171-0.139,0.31-0.31,0.31c-0.171,0-0.308-0.139-0.308-0.31
			c0-0.171,0.138-0.31,0.308-0.31C377.004,46.453,377.143,46.592,377.143,46.762"/>
	</g>
	<g>
		<polygon fill="#D4C73C" points="373.442,38.147 369.189,38.108 362.621,19.089 364.481,18.823 		"/>
	</g>
	<g opacity="0.2">
		<g>
			<defs>
				<rect id="SVGID_83_" x="362.621" y="18.967" width="8.859" height="19.162"/>
			</defs>
			<clipPath id="SVGID_84_">
				<use xlink:href="#SVGID_83_"  overflow="visible"/>
			</clipPath>
			<g clip-path="url(#SVGID_84_)">
				<g>
					<defs>
						<polygon id="SVGID_85_" points="371.479,38.129 369.188,38.107 362.622,19.09 363.481,18.967 						"/>
					</defs>
					<clipPath id="SVGID_86_">
						<use xlink:href="#SVGID_85_"  overflow="visible"/>
					</clipPath>
					<g clip-path="url(#SVGID_86_)">
						<g>
							<defs>
								<rect id="SVGID_87_" x="284.921" y="13.743" width="185.973" height="185.973"/>
							</defs>
							<clipPath id="SVGID_88_">
								<use xlink:href="#SVGID_87_"  overflow="visible"/>
							</clipPath>
							<rect x="284.921" y="13.742" clip-path="url(#SVGID_88_)" fill="#282C2F" width="185.973" height="185.973"/>
						</g>
					</g>
				</g>
			</g>
		</g>
	</g>
	<g>
		<path fill="#FAAC61" d="M371.947,37.212c0,0.111-0.09,0.199-0.201,0.199c-0.112,0-0.202-0.089-0.202-0.199
			c0-0.111,0.09-0.199,0.202-0.199C371.857,37.013,371.947,37.102,371.947,37.212"/>
	</g>
	<g>
		<path fill="#FAAC61" d="M370.526,37.212c0,0.111-0.09,0.199-0.201,0.199c-0.112,0-0.202-0.089-0.202-0.199
			c0-0.111,0.09-0.199,0.202-0.199C370.436,37.013,370.526,37.102,370.526,37.212"/>
	</g>
	<g>
		<rect x="367.752" y="38.023" fill="#F26A2E" width="6.182" height="0.256"/>
	</g>
	<g>
		<g>
			<defs>
				<path id="SVGID_89_" d="M269.585,28.856v1.018c0,1.98,4.063,3.58,9.069,3.58c5.007,0,9.07-1.6,9.07-3.58v-1.018H269.585z"/>
			</defs>
			<clipPath id="SVGID_90_">
				<use xlink:href="#SVGID_89_"  overflow="visible"/>
			</clipPath>
			<g clip-path="url(#SVGID_90_)">
				<g>
					<defs>
						<rect id="SVGID_91_" x="284.197" y="12.775" width="185.973" height="185.973"/>
					</defs>
					<clipPath id="SVGID_92_">
						<use xlink:href="#SVGID_91_"  overflow="visible"/>
					</clipPath>
					<rect x="284.197" y="12.775" clip-path="url(#SVGID_92_)" fill="#058F91" width="185.973" height="185.973"/>
				</g>
			</g>
			<g clip-path="url(#SVGID_90_)">
				<g>
					<defs>
						<rect id="SVGID_93_" x="98.223" y="12.775" width="185.973" height="185.973"/>
					</defs>
					<clipPath id="SVGID_94_">
						<use xlink:href="#SVGID_93_"  overflow="visible"/>
					</clipPath>
					<rect x="98.223" y="12.775" clip-path="url(#SVGID_94_)" fill="#058F91" width="185.973" height="185.973"/>
				</g>
			</g>
		</g>
	</g>
	<g>
		<path fill="#D2C53E" d="M269.585,28.503v1.018c0,1.978,4.063,3.58,9.069,3.58c5.007,0,9.07-1.602,9.07-3.58v-1.018H269.585z"/>
	</g>
	<g>
		<g>
			<defs>
				<polygon id="SVGID_95_" points="362.622,19.089 347.731,21.034 347.086,21.195 362.813,19.643 				"/>
			</defs>
			<clipPath id="SVGID_96_">
				<use xlink:href="#SVGID_95_"  overflow="visible"/>
			</clipPath>
			<g clip-path="url(#SVGID_96_)">
				<g>
					<defs>
						<rect id="SVGID_97_" x="299.517" y="-4.791" width="105.345" height="105.345"/>
					</defs>
					<clipPath id="SVGID_98_">
						<use xlink:href="#SVGID_97_"  overflow="visible"/>
					</clipPath>
					<rect x="299.517" y="-4.791" clip-path="url(#SVGID_98_)" fill="#282C2F" width="105.345" height="105.345"/>
				</g>
			</g>
		</g>
	</g>
	<g>
		<g>
			<defs>
				<polygon id="SVGID_99_" points="371.58,18.452 364.715,19.33 364.48,18.823 371.204,17.819 				"/>
			</defs>
			<clipPath id="SVGID_100_">
				<use xlink:href="#SVGID_99_"  overflow="visible"/>
			</clipPath>
			<g clip-path="url(#SVGID_100_)">
				<g>
					<defs>
						<rect id="SVGID_101_" x="283.87" y="12.2" width="185.973" height="185.973"/>
					</defs>
					<clipPath id="SVGID_102_">
						<use xlink:href="#SVGID_101_"  overflow="visible"/>
					</clipPath>
					<rect x="283.87" y="12.199" clip-path="url(#SVGID_102_)" fill="#282C2F" width="185.973" height="185.973"/>
				</g>
			</g>
		</g>
	</g>
	<g>
		<path fill="#F5F7DB" d="M371.255,18.151l-29.722,3.756l5.371-4.837c0,0,31.801-5.475,31.801-4.281
			C378.706,14.297,371.255,18.151,371.255,18.151"/>
	</g>
	<g>
		<path fill="#B14578" d="M378.633,12.997c-0.719,1.594-2.746,1.838-4.556,2.044c-1.311,0.165-18.858,1.91-25.546,2.355
			c-2.031,0.188-1.641-0.318-1.641-0.318s27.358-5.24,29.43-5.513C378.416,11.28,378.92,11.946,378.633,12.997"/>
	</g>
	<g>
		<path fill="#F26A2E" d="M373.912,14.318c-1.911,0.257-2.454,0.277-27.022,2.76c0,0-0.39,0.503,1.64,0.318
			c6.691-0.446,24.236-2.19,25.55-2.355c1.805-0.207,3.835-0.45,4.553-2.045c0.105-0.385-0.093,0.19,0.074-0.206
			C377.922,14.222,375.641,14.086,373.912,14.318"/>
	</g>
</g>
<g>
	<text transform="matrix(1 0 0 1 28.9151 40.1856)" fill="#FFFFFF" font-family="'Clavo-ExtraBold'" font-size="19.0164">Ãrautirnar</text>
</g>
</svg>
