<?xml version="1.0" encoding="utf-8"?>
<!-- Generator: Adobe Illustrator 17.0.0, SVG Export Plug-In . SVG Version: 6.00 Build 0)  -->
<!DOCTYPE svg PUBLIC "-//W3C//DTD SVG 1.1//EN" "http://www.w3.org/Graphics/SVG/1.1/DTD/svg11.dtd">
<svg version="1.1" id="Layer_1" xmlns="http://www.w3.org/2000/svg" xmlns:xlink="http://www.w3.org/1999/xlink" x="0px" y="0px"
	 width="612px" height="183.348px" viewBox="0 0 612 183.348" enable-background="new 0 0 612 183.348" xml:space="preserve">
<g>
	<path fill="#D0C280" d="M42.177,153.882c-11.68,0-21.148,14.858-21.148,14.858h42.295C63.325,168.74,53.857,153.882,42.177,153.882
		z"/>
	<g>
		<polygon fill="#7A6E5D" points="69.563,168.74 57.088,168.74 62.164,78.324 64.705,78.324 		"/>
		<path fill="#00A459" d="M80.971,124.023c-14.448-11.276-17.645-45.577-17.645-45.577v38.384c0,5.627,1.86,10.668,6.068,14.876
			c10.82,10.822,36.364,10.82,47.183,0c0.854-0.852,1.632-1.752,2.35-2.682C108.041,136.543,93.977,134.176,80.971,124.023z"/>
		<path fill="#126D38" d="M45.678,124.023c14.446-11.276,17.647-45.577,17.647-45.577v38.384c0,5.627-1.862,10.668-6.07,14.876
			c-10.82,10.822-36.364,10.82-47.185,0c-0.852-0.852-1.63-1.752-2.349-2.682C18.609,136.543,32.67,134.176,45.678,124.023z"/>
		<path fill="#126D38" d="M80.971,89.605C66.523,78.329,63.325,44.026,63.325,44.026v38.386c0,5.627,1.86,10.668,6.068,14.876
			c10.82,10.822,36.364,10.82,47.183,0c0.854-0.852,1.632-1.752,2.35-2.682C108.041,102.125,93.977,99.758,80.971,89.605z"/>
		<path fill="#00A459" d="M45.678,89.605c14.446-11.276,17.647-45.578,17.647-45.578v38.386c0,5.627-1.862,10.668-6.07,14.876
			c-10.82,10.822-36.364,10.82-47.185,0c-0.852-0.852-1.63-1.752-2.349-2.682C18.609,102.125,32.67,99.758,45.678,89.605z"/>
		<path fill="#00A459" d="M80.971,56.537C66.523,45.261,63.325,10.959,63.325,10.959v38.384c0,5.629,1.86,10.672,6.068,14.879
			c10.82,10.818,36.364,10.818,47.183,0c0.854-0.852,1.632-1.753,2.35-2.682C108.041,69.057,93.977,66.69,80.971,56.537z"/>
		<path fill="#126D38" d="M45.678,56.537c14.446-11.276,17.647-45.578,17.647-45.578v38.384c0,5.629-1.862,10.672-6.07,14.879
			c-10.82,10.818-36.364,10.818-47.185,0c-0.852-0.852-1.63-1.753-2.349-2.682C18.609,69.057,32.67,66.69,45.678,56.537z"/>
	</g>
	<path fill="#858043" d="M84.472,153.882c-11.68,0-21.148,14.858-21.148,14.858h42.295C105.62,168.74,96.152,153.882,84.472,153.882
		z"/>
</g>
<g>
	<path fill="#D0C280" d="M163.693,154.844c-11.68,0-21.148,14.858-21.148,14.858h42.295
		C184.84,169.702,175.372,154.844,163.693,154.844z"/>
	<g>
		<polygon fill="#7A6E5D" points="191.079,169.702 178.603,169.702 183.68,79.286 186.221,79.286 		"/>
		<path fill="#00A459" d="M202.487,124.985c-14.448-11.276-17.645-45.577-17.645-45.577v38.384c0,5.627,1.86,10.668,6.068,14.876
			c10.82,10.822,36.364,10.82,47.183,0c0.854-0.852,1.632-1.752,2.35-2.682C229.556,137.505,215.493,135.138,202.487,124.985z"/>
		<path fill="#126D38" d="M167.194,124.985c14.446-11.276,17.647-45.577,17.647-45.577v38.384c0,5.627-1.862,10.668-6.07,14.876
			c-10.82,10.822-36.364,10.82-47.185,0c-0.852-0.852-1.63-1.752-2.349-2.682C140.124,137.505,154.186,135.138,167.194,124.985z"/>
		<path fill="#126D38" d="M202.487,90.567c-14.448-11.276-17.645-45.578-17.645-45.578v38.386c0,5.627,1.86,10.668,6.068,14.876
			c10.82,10.822,36.364,10.82,47.183,0c0.854-0.852,1.632-1.752,2.35-2.682C229.556,103.087,215.493,100.72,202.487,90.567z"/>
		<path fill="#00A459" d="M167.194,90.567c14.446-11.276,17.647-45.578,17.647-45.578v38.386c0,5.627-1.862,10.668-6.07,14.876
			c-10.82,10.822-36.364,10.82-47.185,0c-0.852-0.852-1.63-1.752-2.349-2.682C140.124,103.087,154.186,100.72,167.194,90.567z"/>
		<path fill="#00A459" d="M202.487,57.499c-14.448-11.276-17.645-45.578-17.645-45.578v38.384c0,5.629,1.86,10.672,6.068,14.879
			c10.82,10.818,36.364,10.818,47.183,0c0.854-0.852,1.632-1.753,2.35-2.682C229.556,70.019,215.493,67.652,202.487,57.499z"/>
		<path fill="#126D38" d="M167.194,57.499c14.446-11.276,17.647-45.578,17.647-45.578v38.384c0,5.629-1.862,10.672-6.07,14.879
			c-10.82,10.818-36.364,10.818-47.185,0c-0.852-0.852-1.63-1.753-2.349-2.682C140.124,70.019,154.186,67.652,167.194,57.499z"/>
	</g>
	<path fill="#858043" d="M205.988,154.844c-11.68,0-21.148,14.858-21.148,14.858h42.295
		C227.135,169.702,217.667,154.844,205.988,154.844z"/>
</g>
<g>
	<path fill="#D0C280" d="M406.725,154.454c-11.68,0-21.148,14.858-21.148,14.858h42.295
		C427.872,169.311,418.404,154.454,406.725,154.454z"/>
	<g>
		<polygon fill="#7A6E5D" points="434.111,169.311 421.635,169.311 426.711,78.895 429.252,78.895 		"/>
		<path fill="#00A459" d="M445.518,124.594c-14.448-11.276-17.645-45.577-17.645-45.577v38.384c0,5.627,1.86,10.668,6.068,14.876
			c10.82,10.822,36.364,10.82,47.183,0c0.854-0.852,1.632-1.752,2.35-2.682C472.588,137.114,458.524,134.747,445.518,124.594z"/>
		<path fill="#126D38" d="M410.226,124.594c14.446-11.276,17.647-45.577,17.647-45.577v38.384c0,5.627-1.862,10.668-6.069,14.876
			c-10.82,10.822-36.364,10.82-47.185,0c-0.852-0.852-1.63-1.752-2.349-2.682C383.156,137.114,397.218,134.747,410.226,124.594z"/>
		<path fill="#126D38" d="M445.518,90.176c-14.448-11.276-17.645-45.578-17.645-45.578v38.386c0,5.627,1.86,10.668,6.068,14.876
			c10.82,10.822,36.364,10.82,47.183,0c0.854-0.852,1.632-1.752,2.35-2.682C472.588,102.696,458.524,100.329,445.518,90.176z"/>
		<path fill="#00A459" d="M410.226,90.176c14.446-11.276,17.647-45.578,17.647-45.578v38.386c0,5.627-1.862,10.668-6.069,14.876
			c-10.82,10.822-36.364,10.82-47.185,0c-0.852-0.852-1.63-1.752-2.349-2.682C383.156,102.696,397.218,100.329,410.226,90.176z"/>
		<path fill="#00A459" d="M445.518,57.108c-14.448-11.276-17.645-45.578-17.645-45.578v38.384c0,5.629,1.86,10.672,6.068,14.879
			c10.82,10.818,36.364,10.818,47.183,0c0.854-0.852,1.632-1.753,2.35-2.682C472.588,69.628,458.524,67.261,445.518,57.108z"/>
		<path fill="#126D38" d="M410.226,57.108c14.446-11.276,17.647-45.578,17.647-45.578v38.384c0,5.629-1.862,10.672-6.069,14.879
			c-10.82,10.818-36.364,10.818-47.185,0c-0.852-0.852-1.63-1.753-2.349-2.682C383.156,69.628,397.218,67.261,410.226,57.108z"/>
	</g>
	<path fill="#858043" d="M449.02,154.454c-11.68,0-21.148,14.858-21.148,14.858h42.295
		C470.167,169.311,460.699,154.454,449.02,154.454z"/>
</g>
<g>
	<path fill="#D0C280" d="M528.241,151.256c-11.68,0-21.148,14.858-21.148,14.858h42.295
		C549.388,166.114,539.92,151.256,528.241,151.256z"/>
	<g>
		<polygon fill="#7A6E5D" points="555.627,166.114 543.151,166.114 548.227,75.698 550.768,75.698 		"/>
		<path fill="#00A459" d="M567.034,121.397c-14.448-11.276-17.645-45.577-17.645-45.577v38.384c0,5.627,1.86,10.668,6.068,14.876
			c10.82,10.822,36.364,10.82,47.183,0c0.854-0.852,1.632-1.752,2.35-2.682C594.104,133.917,580.04,131.55,567.034,121.397z"/>
		<path fill="#126D38" d="M531.742,121.397c14.446-11.276,17.647-45.577,17.647-45.577v38.384c0,5.627-1.862,10.668-6.069,14.876
			c-10.82,10.822-36.364,10.82-47.185,0c-0.852-0.852-1.63-1.752-2.349-2.682C504.672,133.917,518.734,131.55,531.742,121.397z"/>
		<path fill="#126D38" d="M567.034,86.979c-14.448-11.276-17.645-45.578-17.645-45.578v38.386c0,5.627,1.86,10.668,6.068,14.876
			c10.82,10.822,36.364,10.82,47.183,0c0.854-0.852,1.632-1.752,2.35-2.682C594.104,99.499,580.04,97.132,567.034,86.979z"/>
		<path fill="#00A459" d="M531.742,86.979c14.446-11.276,17.647-45.578,17.647-45.578v38.386c0,5.627-1.862,10.668-6.069,14.876
			c-10.82,10.822-36.364,10.82-47.185,0c-0.852-0.852-1.63-1.752-2.349-2.682C504.672,99.499,518.734,97.132,531.742,86.979z"/>
		<path fill="#00A459" d="M567.034,53.911c-14.448-11.276-17.645-45.578-17.645-45.578v38.384c0,5.629,1.86,10.672,6.068,14.879
			c10.82,10.818,36.364,10.818,47.183,0c0.854-0.852,1.632-1.753,2.35-2.682C594.104,66.431,580.04,64.064,567.034,53.911z"/>
		<path fill="#126D38" d="M531.742,53.911c14.446-11.276,17.647-45.578,17.647-45.578v38.384c0,5.629-1.862,10.672-6.069,14.879
			c-10.82,10.818-36.364,10.818-47.185,0c-0.852-0.852-1.63-1.753-2.349-2.682C504.672,66.431,518.734,64.064,531.742,53.911z"/>
	</g>
	<path fill="#858043" d="M570.536,151.256c-11.68,0-21.148,14.858-21.148,14.858h42.295
		C591.683,166.114,582.215,151.256,570.536,151.256z"/>
</g>
<g>
	<polygon fill="#036D86" points="358.678,63.54 287.091,63.54 287.091,18.102 358.678,18.102 340.122,40.821 	"/>
	<polygon fill="#E55132" points="282.954,139.216 281.122,139.216 281.588,10.85 282.487,10.85 	"/>
	<polygon fill="#D4C73C" points="282.487,10.85 282.037,10.85 282.037,129.019 281.159,129.019 281.122,139.216 282.954,139.216 	
		"/>
	<ellipse fill="#B14578" cx="282.038" cy="10.874" rx="5.053" ry="5.013"/>
	<path fill="#E55132" d="M282.038,5.859h-0.001c-2.791,0-5.053,2.245-5.053,5.015c0,2.769,2.262,5.013,5.053,5.013h0.001V5.859z"/>
	<polygon fill="#E55132" points="286.448,178.308 277.627,178.308 280.637,128.552 283.438,128.552 	"/>
	<path fill="#A49A54" d="M272.703,169.046c-5.156,0-9.335,4.147-9.335,9.261h18.669
		C282.038,173.194,277.858,169.046,272.703,169.046z"/>
	<path fill="#A49A54" d="M305.373,173.676c-2.579,0-4.667,2.074-4.667,4.631h9.335C310.041,175.75,307.951,173.676,305.373,173.676z
		"/>
	<path fill="#A49A54" d="M258.702,173.676c-2.578,0-4.667,2.074-4.667,4.631h9.335C263.369,175.75,261.279,173.676,258.702,173.676z
		"/>
	<linearGradient id="SVGID_1_" gradientUnits="userSpaceOnUse" x1="268.4405" y1="180.8739" x2="281.3637" y2="167.4635">
		<stop  offset="0" style="stop-color:#FFFFFF"/>
		<stop  offset="0.16" style="stop-color:#CDCBCA"/>
		<stop  offset="0.5055" style="stop-color:#757171"/>
		<stop  offset="1" style="stop-color:#141414"/>
	</linearGradient>
	<path fill="url(#SVGID_1_)" d="M272.703,169.046c-5.156,0-9.335,4.147-9.335,9.261h18.669
		C282.038,173.194,277.858,169.046,272.703,169.046z"/>
	<linearGradient id="SVGID_2_" gradientUnits="userSpaceOnUse" x1="302.5173" y1="178.8419" x2="310.3985" y2="173.8604">
		<stop  offset="0" style="stop-color:#FFFFFF"/>
		<stop  offset="0.16" style="stop-color:#CDCBCA"/>
		<stop  offset="0.5055" style="stop-color:#757171"/>
		<stop  offset="1" style="stop-color:#141414"/>
	</linearGradient>
	<path fill="url(#SVGID_2_)" d="M305.373,173.676c-2.579,0-4.667,2.074-4.667,4.631h9.335
		C310.041,175.75,307.951,173.676,305.373,173.676z"/>
	<linearGradient id="SVGID_3_" gradientUnits="userSpaceOnUse" x1="255.7096" y1="178.7834" x2="263.7164" y2="174.0049">
		<stop  offset="0" style="stop-color:#FFFFFF"/>
		<stop  offset="0.16" style="stop-color:#CDCBCA"/>
		<stop  offset="0.5055" style="stop-color:#757171"/>
		<stop  offset="1" style="stop-color:#141414"/>
	</linearGradient>
	<path fill="url(#SVGID_3_)" d="M258.702,173.676c-2.578,0-4.667,2.074-4.667,4.631h9.335
		C263.369,175.75,261.279,173.676,258.702,173.676z"/>
	<path fill="#A49A54" d="M291.372,169.046c-5.155,0-9.333,4.147-9.333,9.261h18.668
		C300.706,173.194,296.527,169.046,291.372,169.046z"/>
	<linearGradient id="SVGID_4_" gradientUnits="userSpaceOnUse" x1="291.3721" y1="178.8541" x2="291.3721" y2="148.718">
		<stop  offset="0" style="stop-color:#FFFFFF"/>
		<stop  offset="0.0683" style="stop-color:#CDCBCA"/>
		<stop  offset="0.2158" style="stop-color:#757171"/>
		<stop  offset="0.4268" style="stop-color:#141414"/>
	</linearGradient>
	<path fill="url(#SVGID_4_)" d="M291.372,169.046c-5.155,0-9.333,4.147-9.333,9.261h18.668
		C300.706,173.194,296.527,169.046,291.372,169.046z"/>
	<polygon fill="#B14578" points="282.038,128.552 280.637,128.552 277.627,178.308 282.038,178.308 	"/>
	<rect x="279.511" y="22.25" fill="#32B1A7" width="9.087" height="5.258"/>
	<rect x="279.511" y="54.48" fill="#D4C73C" width="9.087" height="5.258"/>
	<rect x="305.877" y="18.102" fill="#D6D5D5" width="8.46" height="45.438"/>
	<polygon fill="#D6D5D5" points="287.091,45.018 287.091,36.625 343.557,36.625 340.122,40.821 343.557,45.018 	"/>
	<polygon fill="#E55132" points="287.091,43.206 342.085,43.206 340.122,40.821 342.086,38.437 287.091,38.437 	"/>
	<rect x="308.312" y="18.102" fill="#E55132" width="4.017" height="45.438"/>
</g>
</svg>
