<?xml version="1.0" encoding="utf-8"?>
<!-- Generator: Adobe Illustrator 17.0.0, SVG Export Plug-In . SVG Version: 6.00 Build 0)  -->
<!DOCTYPE svg PUBLIC "-//W3C//DTD SVG 1.1//EN" "http://www.w3.org/Graphics/SVG/1.1/DTD/svg11.dtd">
<svg version="1.1" id="Layer_2" xmlns="http://www.w3.org/2000/svg" xmlns:xlink="http://www.w3.org/1999/xlink" x="0px" y="0px"
	 width="28.125px" height="28.25px" viewBox="0 0 28.125 28.25" enable-background="new 0 0 28.125 28.25" xml:space="preserve">
<path d="M7.045,14.945v-4.217h2.801v-4.25c0-1.175,0.2-2.125,0.6-2.85c0.402-0.725,0.932-1.279,1.591-1.663
	c0.461-0.275,0.884-0.475,1.269-0.602c0.384-0.126,0.84-0.227,1.367-0.304c0.264-0.033,0.494-0.062,0.691-0.083
	c0.198-0.022,0.368-0.038,0.511-0.049c0.143-0.011,0.297-0.018,0.462-0.018h0.525c1.188,0,2.593,0.171,4.219,0.511l-0.774,4.481
	c-0.056-0.011-0.132-0.022-0.231-0.033c-0.099-0.011-0.219-0.028-0.362-0.05c-0.285-0.043-0.558-0.08-0.814-0.107
	c-0.259-0.027-0.509-0.041-0.75-0.041c-1.78,0-2.669,0.753-2.669,2.257v2.8h4.827l-0.313,4.217h-4.514V27.34H9.846V14.945H7.045z"/>
</svg>
