<?xml version="1.0" encoding="utf-8"?>
<!-- Generator: Adobe Illustrator 17.0.0, SVG Export Plug-In . SVG Version: 6.00 Build 0)  -->
<!DOCTYPE svg PUBLIC "-//W3C//DTD SVG 1.1//EN" "http://www.w3.org/Graphics/SVG/1.1/DTD/svg11.dtd">
<svg version="1.1" id="Layer_3" xmlns="http://www.w3.org/2000/svg" xmlns:xlink="http://www.w3.org/1999/xlink" x="0px" y="0px"
	 width="28.125px" height="28.25px" viewBox="0 0 28.125 28.25" enable-background="new 0 0 28.125 28.25" xml:space="preserve">
<path d="M12.028,8.639c-0.635,0.243-1.207,0.579-1.715,1.006H1.062V3.716c0-0.355,0.068-0.691,0.206-1.006
	c0.137-0.315,0.322-0.589,0.557-0.823c0.233-0.234,0.507-0.419,0.823-0.556c0.314-0.137,0.649-0.206,1.005-0.206h20.819
	c0.354,0,0.689,0.069,1.005,0.206c0.314,0.137,0.589,0.322,0.822,0.556c0.234,0.234,0.421,0.508,0.557,0.823
	c0.137,0.315,0.206,0.651,0.206,1.006v5.929h-9.251c-0.509-0.427-1.08-0.763-1.714-1.006c-0.636-0.244-1.314-0.366-2.034-0.366
	C13.341,8.273,12.663,8.395,12.028,8.639 M3.653,27.125c-0.356,0-0.691-0.068-1.005-0.205c-0.316-0.138-0.59-0.323-0.823-0.558
	c-0.234-0.232-0.42-0.508-0.557-0.822c-0.138-0.316-0.206-0.65-0.206-1.005V11.794h7.636c-0.326,0.731-0.488,1.508-0.488,2.331
	c0,0.812,0.152,1.573,0.458,2.278c0.305,0.707,0.724,1.326,1.257,1.859c0.533,0.533,1.152,0.953,1.859,1.257
	c0.706,0.306,1.465,0.458,2.279,0.458c0.802,0,1.559-0.152,2.269-0.458c0.711-0.304,1.334-0.724,1.867-1.257
	c0.534-0.533,0.953-1.152,1.257-1.859c0.305-0.705,0.457-1.466,0.457-2.278c0-0.823-0.162-1.6-0.486-2.331h7.635v12.741
	c0,0.354-0.069,0.689-0.206,1.005c-0.136,0.314-0.322,0.59-0.557,0.822c-0.233,0.234-0.508,0.42-0.822,0.558
	c-0.315,0.137-0.65,0.205-1.005,0.205H3.653z M17.057,15.39c-0.166,0.396-0.398,0.742-0.692,1.036
	c-0.295,0.295-0.642,0.526-1.037,0.694c-0.396,0.167-0.818,0.251-1.264,0.251c-0.448,0-0.87-0.084-1.266-0.251
	c-0.397-0.168-0.741-0.399-1.036-0.694c-0.296-0.294-0.526-0.64-0.694-1.036c-0.167-0.396-0.251-0.818-0.251-1.265
	c0-0.447,0.084-0.869,0.251-1.265c0.168-0.396,0.398-0.741,0.694-1.036c0.295-0.295,0.64-0.526,1.036-0.694
	c0.396-0.167,0.817-0.251,1.266-0.251c0.445,0,0.868,0.084,1.264,0.251c0.396,0.168,0.742,0.399,1.037,0.694
	c0.294,0.295,0.526,0.64,0.692,1.036c0.169,0.396,0.253,0.818,0.253,1.265C17.31,14.571,17.226,14.994,17.057,15.39 M20.715,7.473
	c0.086,0.086,0.186,0.129,0.297,0.129h3.444c0.122,0,0.224-0.043,0.306-0.129c0.08-0.086,0.121-0.186,0.121-0.297V3.731
	c0-0.122-0.041-0.223-0.121-0.304c-0.082-0.082-0.184-0.122-0.306-0.122h-3.444c-0.111,0-0.211,0.04-0.297,0.122
	c-0.087,0.081-0.13,0.182-0.13,0.304v3.445C20.585,7.287,20.628,7.387,20.715,7.473"/>
</svg>
