<?xml version="1.0" encoding="utf-8"?>
<!-- Generator: Adobe Illustrator 17.0.0, SVG Export Plug-In . SVG Version: 6.00 Build 0)  -->
<!DOCTYPE svg PUBLIC "-//W3C//DTD SVG 1.1//EN" "http://www.w3.org/Graphics/SVG/1.1/DTD/svg11.dtd">
<svg version="1.1" id="Layer_4" xmlns="http://www.w3.org/2000/svg" xmlns:xlink="http://www.w3.org/1999/xlink" x="0px" y="0px"
	 width="28.125px" height="28.25px" viewBox="0 0 28.125 28.25" enable-background="new 0 0 28.125 28.25" xml:space="preserve">
<path d="M26.731,6.035c0.221,0.101,0.331,0.272,0.331,0.512v15.166c0,0.241-0.11,0.412-0.331,0.512
	c-0.041,0.021-0.11,0.03-0.211,0.03c-0.12,0-0.251-0.05-0.391-0.15l-5.567-5.597v4.122c0,0.442-0.161,0.823-0.482,1.143
	c-0.321,0.321-0.703,0.482-1.143,0.482H2.688c-0.441,0-0.823-0.16-1.144-0.482c-0.321-0.32-0.481-0.701-0.481-1.143v-13
	c0-0.44,0.16-0.822,0.481-1.144c0.32-0.32,0.702-0.481,1.144-0.481h16.25c0.44,0,0.822,0.161,1.143,0.481
	c0.32,0.321,0.482,0.703,0.482,1.144v4.123l5.567-5.598C26.29,5.995,26.49,5.955,26.731,6.035L26.731,6.035z"/>
</svg>
