<svg version="1.1" id="Layer_1" xmlns="http://www.w3.org/2000/svg" xmlns:xlink="http://www.w3.org/1999/xlink" x="0px" y="0px"
	 viewBox="0 0 79.788 124.731" enable-background="new 0 0 79.788 124.731" xml:space="preserve">
<g>
	<polygon fill="#E01E26" points="0,0 0,124.731 39.894,92.403 79.788,124.731 79.788,0 	"/>
	<path fill="#FFFFFF" d="M55.159,53.449l5.276-7.363c0.773-0.273,1.549-0.483,2.461-0.598c0-1.101-0.332-2.206-0.514-3.308H51.904
		c-0.182,1.105-0.514,2.206-0.514,3.308c0.878,0.112,1.759,0.318,2.619,0.587l-2.776,4.371c-1.304-3.234-3.15-6.031-4.954-8.266
		h-7.377c-0.182,1.101-0.514,2.206-0.514,3.308c1.021,0.126,1.85,0.367,2.699,0.685l5.559,7.363l-5.377,8.119
		c-0.86,0.322-1.696,0.566-2.727,0.692c0,1.101,0.332,2.206,0.514,3.311h10.213c0.182-1.105,0.514-2.21,0.514-3.311
		c-0.685-0.084-1.367-0.231-2.045-0.416l2.857-5.108c1.308,3.468,3.01,6.598,5.056,8.835h7.643c0.185-1.105,0.514-2.206,0.514-3.311
		c-1.01-0.122-1.832-0.36-2.675-0.675L55.159,53.449z M17.912,42.373v3.164c1.101,0.182,2.206,0.517,3.311,0.517
		c0.154-1.245,0.5-2.486,0.951-3.682l-0.035-0.063c0.573-0.115,1.196-0.182,1.867-0.182c2.923,0,4.524,1.29,4.524,3.395
		c0,2.388-2.063,3.385-5.028,3.899c-1.36,0.241-2.147,0.444-2.154,0.444c-0.706,1.465-0.615,2.958,0.262,4.353
		c0,0,1.948-0.594,4.388-0.975c1.678,0.836,2.864,2.385,2.864,4.164c0,2.353-2.038,3.94-5.217,3.94c-3.112,0-5.377-1.58-5.423-1.605
		c-0.853,0.794-1.308,2.105-1.192,3.65c0.199,0.098,2.871,2.692,8.332,2.692c6.591,0,10.293-3.552,10.293-8.091
		c0-3.108-1.755-5.301-4.675-6.559c2.451-1.626,3.829-4.084,3.829-6.671c0-4.426-3.892-7.374-9.531-7.374
		c-4.385,0-7.367,1.801-7.367,1.801V42.373z"/>
</g>
</svg>