<svg version="1.1" id="Layer_1" xmlns="http://www.w3.org/2000/svg" xmlns:xlink="http://www.w3.org/1999/xlink" x="0px" y="0px"
	 viewBox="0 0 377.418 159.283" enable-background="new 0 0 377.418 159.283" xml:space="preserve">
<symbol  id="footer_desktop" viewBox="-701.894 -188.258 1405.062 376.518">
	<g>
		<defs>
			<polygon id="SVGID_1_" points="-701.894,-188.258 703.168,-188.258 703.168,-51.68 -701.894,-51.68 			"/>
		</defs>
		<clipPath id="SVGID_2_">
			<use xlink:href="#SVGID_1_"  overflow="visible"/>
		</clipPath>
		<path clip-path="url(#SVGID_2_)" fill="#B9CCC7" d="M703.169-176.259v118.817c-6.396,0.438-11.302,2.841-11.302,5.762
			c0-3.233-5.992-5.854-13.383-5.854S665.1-54.914,665.1-51.68c0-3.233-5.992-5.854-13.383-5.854s-13.383,2.621-13.383,5.854
			c0-3.233-5.992-5.854-13.383-5.854s-13.383,2.621-13.383,5.854c0-3.233-5.992-5.854-13.383-5.854s-13.383,2.621-13.383,5.854
			c0-3.233-5.992-5.854-13.383-5.854s-13.383,2.621-13.383,5.854c0-2.873-4.741-5.253-10.983-5.748v-0.014
			c-6.398,0.438-11.304,2.841-11.304,5.762c0-3.233-5.992-5.854-13.383-5.854c-7.392,0-13.381,2.621-13.381,5.854
			c0-3.233-5.994-5.854-13.385-5.854c-7.392,0-13.383,2.621-13.383,5.854c0-3.233-5.992-5.854-13.383-5.854
			c-7.392,0-13.381,2.621-13.381,5.854c0-3.233-5.994-5.854-13.386-5.854s-13.383,2.621-13.383,5.854
			c0-3.233-5.992-5.854-13.383-5.854s-13.383,2.621-13.383,5.854c0-2.873-4.741-5.253-10.983-5.748v-0.014
			c-6.396,0.438-11.302,2.841-11.302,5.762c0-3.233-5.992-5.854-13.383-5.854s-13.383,2.621-13.383,5.854
			c0-3.233-5.992-5.854-13.383-5.854s-13.383,2.621-13.383,5.854c0-3.233-5.992-5.854-13.383-5.854s-13.383,2.621-13.383,5.854
			c0-3.233-5.992-5.854-13.383-5.854s-13.383,2.621-13.383,5.854c0-3.233-5.992-5.854-13.383-5.854
			c-7.392,0-13.383,2.621-13.383,5.854c0-2.873-4.741-5.253-10.983-5.748v-0.014c-6.398,0.438-11.304,2.841-11.304,5.762
			c0-3.233-5.992-5.854-13.383-5.854c-7.391,0-13.381,2.621-13.381,5.854c0-3.233-5.994-5.854-13.386-5.854
			c-7.391,0-13.383,2.621-13.383,5.854c0-3.233-5.992-5.854-13.383-5.854c-7.392,0-13.381,2.621-13.381,5.854
			c0-3.233-5.994-5.854-13.385-5.854c-7.392,0-13.383,2.621-13.383,5.854c0-3.233-5.992-5.854-13.383-5.854
			s-13.383,2.621-13.383,5.854c0-2.873-4.741-5.253-10.983-5.748v-0.014c-6.396,0.438-11.302,2.841-11.302,5.762
			c0-3.233-5.992-5.854-13.383-5.854s-13.383,2.621-13.383,5.854c0-3.233-5.992-5.854-13.383-5.854s-13.383,2.621-13.383,5.854
			c0-3.233-5.992-5.854-13.383-5.854s-13.383,2.621-13.383,5.854c0-3.233-5.992-5.854-13.383-5.854s-13.383,2.621-13.383,5.854
			c0-3.233-5.992-5.854-13.383-5.854s-13.383,2.621-13.383,5.854c0-2.873-4.741-5.253-10.983-5.748v-0.014
			c-6.398,0.438-11.304,2.841-11.304,5.762c0-3.233-5.989-5.854-13.383-5.854c-7.389,0-13.381,2.621-13.381,5.854
			c0-3.233-5.992-5.854-13.383-5.854c-7.394,0-13.386,2.621-13.386,5.854c0-3.233-5.992-5.854-13.383-5.854
			c-7.391,0-13.381,2.621-13.381,5.854c0-3.233-5.994-5.854-13.383-5.854c-7.394,0-13.386,2.621-13.386,5.854
			c0-3.233-5.989-5.854-13.383-5.854c-7.391,0-13.383,2.621-13.383,5.854c0-2.873-4.741-5.253-10.983-5.748v-0.014
			c-6.396,0.438-11.302,2.841-11.302,5.762c0-3.233-5.992-5.854-13.383-5.854c-7.391,0-13.383,2.621-13.383,5.854
			c0-3.233-5.992-5.854-13.383-5.854c-7.392,0-13.383,2.621-13.383,5.854c0-3.233-5.992-5.854-13.383-5.854
			c-7.392,0-13.383,2.621-13.383,5.854c0-3.233-5.992-5.854-13.383-5.854c-7.392,0-13.383,2.621-13.383,5.854
			c0-3.233-5.992-5.854-13.383-5.854c-7.392,0-13.383,2.621-13.383,5.854c0-2.873-4.741-5.253-10.983-5.748v-0.014
			c-6.398,0.438-11.304,2.841-11.304,5.762c0-3.233-5.992-5.854-13.383-5.854c-7.389,0-13.381,2.621-13.381,5.854
			c0-3.233-5.992-5.854-13.383-5.854c-7.394,0-13.386,2.621-13.386,5.854c0-3.233-5.992-5.854-13.383-5.854
			c-7.389,0-13.381,2.621-13.381,5.854c0-3.233-5.994-5.854-13.383-5.854c-7.394,0-13.386,2.621-13.386,5.854
			c0-3.233-5.989-5.854-13.383-5.854c-7.392,0-13.383,2.621-13.383,5.854c0-2.873-4.741-5.253-10.983-5.748v-0.014
			c-6.396,0.438-11.302,2.841-11.302,5.762c0-3.233-5.992-5.854-13.383-5.854c-7.392,0-13.383,2.621-13.383,5.854
			c0-3.233-5.992-5.854-13.383-5.854c-7.392,0-13.383,2.621-13.383,5.854c0-3.233-5.992-5.854-13.383-5.854
			c-7.392,0-13.383,2.621-13.383,5.854c0-3.233-5.992-5.854-13.383-5.854c-7.392,0-13.383,2.621-13.383,5.854
			c0-3.233-5.992-5.854-13.383-5.854s-13.383,2.621-13.383,5.854c0-2.873-4.741-5.253-10.983-5.748v-118.83H703.169z"/>
	</g>
	<g>
		<polygon fill="#E19F54" points="319.754,168.834 394.822,168.834 394.822,150.62 319.754,150.62 357.288,159.727 		"/>
		<polygon fill="#E19F54" points="394.821,159.727 394.821,168.834 319.753,168.834 357.287,159.727 		"/>
		<polygon fill="#FFFFFF" points="242.378,-63.536 269.044,-90.822 493.72,-91.026 509.448,-63.536 		"/>
		<polygon fill="#6CB0A6" points="245.832,-24.275 394.821,-24.275 394.821,137.36 		"/>
		<polygon fill="#FFFFFF" points="464.895,-24.276 404.089,-24.276 404.089,98.613 		"/>
		<g>
			<defs>
				<polygon id="SVGID_3_" points="242.378,-96.042 511.043,-96.042 511.043,188.26 242.378,188.26 				"/>
			</defs>
			<clipPath id="SVGID_4_">
				<use xlink:href="#SVGID_3_"  overflow="visible"/>
			</clipPath>
			<path clip-path="url(#SVGID_4_)" fill="#C85338" d="M438.709-71.614H323.476v22.546h92.909
				c12.354-0.025,22.352-10.026,22.324-22.32V-71.614z"/>
			<path clip-path="url(#SVGID_4_)" fill="#6CADA6" d="M437.152-63.214H323.476v6.068h110.098
				C435.325-58.72,437.152-63.214,437.152-63.214"/>
		</g>
		<polygon fill="#C85338" points="401.209,-49.066 396.113,-49.066 397.409,182.034 399.909,182.034 		"/>
		<polygon fill="#D1C749" points="399.91,182.032 398.66,182.032 398.66,-48.906 396.216,-48.906 396.11,-48.906 401.209,-48.906 		
			"/>
		<g>
			<defs>
				<polygon id="SVGID_5_" points="242.378,-96.042 511.043,-96.042 511.043,188.26 242.378,188.26 				"/>
			</defs>
			<clipPath id="SVGID_6_">
				<use xlink:href="#SVGID_5_"  overflow="visible"/>
			</clipPath>
			<path clip-path="url(#SVGID_6_)" fill="#9D4676" d="M402.274,184.646c0-1.997-1.616-3.613-3.613-3.613s-3.617,1.616-3.617,3.613
				c0,1.997,1.62,3.613,3.617,3.613S402.274,186.642,402.274,184.646"/>
			<path clip-path="url(#SVGID_6_)" fill="#C85338" d="M398.66,188.26L398.66,188.26c-1.997,0-3.613-1.616-3.613-3.613
				c0-1.997,1.616-3.617,3.613-3.617V188.26z"/>
		</g>
		<polygon fill="#C85338" points="242.378,-63.536 251.552,-72.988 503.996,-72.988 509.448,-63.536 		"/>
		<polygon fill="#D1C749" points="295.495,29.604 245.833,-24.274 394.821,-24.274 394.821,29.604 		"/>
		<polygon fill="#9D4676" points="295.495,29.603 394.821,29.603 394.821,83.481 345.158,83.481 		"/>
		<polygon fill="#6CB0A6" points="345.158,83.482 394.821,83.482 394.821,137.36 		"/>
		<g>
			<defs>
				<polygon id="SVGID_7_" points="242.378,-96.042 511.043,-96.042 511.043,188.26 242.378,188.26 				"/>
			</defs>
			<clipPath id="SVGID_8_">
				<use xlink:href="#SVGID_7_"  overflow="visible"/>
			</clipPath>
			<path clip-path="url(#SVGID_8_)" fill="#B9CCC7" d="M498.361-91.558c-7.005,0-12.682,2.483-12.682,5.547
				c0-3.064-5.677-5.547-12.682-5.547c-7.005,0-12.682,2.483-12.682,5.547c0-3.064-5.68-5.547-12.682-5.547
				c-7.005,0-12.685,2.483-12.685,5.547c0-3.064-5.677-5.547-12.682-5.547s-12.682,2.483-12.682,5.547
				c0-3.064-5.677-5.547-12.682-5.547s-12.682,2.483-12.682,5.547c0-3.064-5.677-5.547-12.682-5.547
				c-7.005,0-12.682,2.483-12.682,5.547c0-3.064-5.68-5.547-12.685-5.547c-7.001,0-12.682,2.483-12.682,5.547
				c0-3.064-5.677-5.547-12.682-5.547s-12.682,2.483-12.682,5.547c0-3.064-5.677-5.547-12.682-5.547
				c-7.005,0-12.682,2.483-12.682,5.547c0-3.064-5.68-5.547-12.682-5.547c-7.005,0-12.685,2.483-12.685,5.547v-10.03h253.642v10.03
				C511.042-89.075,505.365-91.558,498.361-91.558"/>
		</g>
	</g>
	<g>
		<polygon fill="#8DC7BD" points="18.314,-65.048 19.942,-65.048 19.942,14.602 18.314,14.602 		"/>
		<polygon fill="#8DC7BD" points="21.566,-66.039 23.195,-66.039 23.195,14.553 21.566,14.553 		"/>
		<polygon fill="#6CB0A6" points="23.195,-66.039 24.822,-66.039 24.822,-44.566 23.195,-44.566 		"/>
		<polygon fill="#6CB0A6" points="16.687,-66.039 18.314,-66.039 18.314,-31.624 16.687,-31.624 		"/>
		<polygon fill="#6CB0A6" points="19.942,-68.253 21.571,-68.253 21.571,23.144 19.942,23.144 		"/>
		<g>
			<defs>
				<polygon id="SVGID_9_" points="-59.434,-122.218 60.427,-122.218 60.427,35.416 -59.434,35.416 				"/>
			</defs>
			<clipPath id="SVGID_10_">
				<use xlink:href="#SVGID_9_"  overflow="visible"/>
			</clipPath>
			<path clip-path="url(#SVGID_10_)" fill="#6CB0A6" d="M18.314-31.624c0-1.166-0.945-2.111-2.111-2.111
				c-1.166,0-2.113,0.945-2.113,2.111c0,1.166,0.947,2.111,2.113,2.111C17.369-29.513,18.314-30.458,18.314-31.624"/>
			<path clip-path="url(#SVGID_10_)" fill="#6CB0A6" d="M27.418-44.566c0-1.166-0.945-2.111-2.111-2.111
				c-1.166,0-2.113,0.945-2.113,2.111s0.947,2.111,2.113,2.111C26.473-42.454,27.418-43.4,27.418-44.566"/>
			<path clip-path="url(#SVGID_10_)" fill="#6CB0A6" d="M22.849,24.62c0-1.166-0.945-2.111-2.111-2.111
				c-1.166,0-2.113,0.945-2.113,2.111c0,1.166,0.947,2.111,2.113,2.111C21.904,26.732,22.849,25.787,22.849,24.62"/>
			<path clip-path="url(#SVGID_10_)" fill="#8DC7BD" d="M25.59,15.221c0-1.166-0.945-2.111-2.111-2.111
				c-1.166,0-2.113,0.945-2.113,2.111c0,1.166,0.947,2.111,2.113,2.111C24.645,17.333,25.59,16.388,25.59,15.221"/>
			<path clip-path="url(#SVGID_10_)" fill="#8DC7BD" d="M19.977,15.221c0-1.166-0.945-2.111-2.111-2.111
				c-1.166,0-2.113,0.945-2.113,2.111c0,1.166,0.947,2.111,2.113,2.111C19.032,17.333,19.977,16.388,19.977,15.221"/>
			<path clip-path="url(#SVGID_10_)" fill="#15212E" d="M-30.112-65.097h87.353L30.214-89.618
				C30.214-89.618,6.636-101.551-30.112-65.097"/>
			<path clip-path="url(#SVGID_10_)" fill="#15212E" d="M-29.342-65.097h-30.09C-59.432-65.097-60.298-96.054-29.342-65.097"/>
			<path clip-path="url(#SVGID_10_)" fill="#6CB0A6" d="M24.478-70.967c1.575-1.575,1.575-4.128,0-5.703
				c-1.575-1.575-4.128-1.575-5.703,0c-1.575,1.575-1.575,4.128,0,5.703C20.35-69.393,22.903-69.393,24.478-70.967"/>
			<path clip-path="url(#SVGID_10_)" fill="#D1C749" d="M21.661-71.003c1.556-0.005,2.814-1.268,2.809-2.824
				c-0.005-1.556-1.269-2.814-2.825-2.809c-1.554,0.005-2.812,1.269-2.807,2.824C18.84-72.256,20.106-70.998,21.661-71.003"/>
			<path clip-path="url(#SVGID_10_)" fill="#D05966" d="M18.836-73.811c-0.005-1.554,1.252-2.82,2.809-2.824l0.015,5.632
				C20.106-70.998,18.841-72.255,18.836-73.811"/>
			<path clip-path="url(#SVGID_10_)" fill="#040404" d="M23.239-73.819c0-0.889-0.722-1.612-1.612-1.612
				c-0.889,0-1.612,0.722-1.612,1.612c0,0.891,0.722,1.612,1.612,1.612C22.516-72.207,23.239-72.928,23.239-73.819"/>
			<path clip-path="url(#SVGID_10_)" fill="#D7D6D6" d="M23.944-73.965c0-0.39-0.316-0.706-0.706-0.706
				c-0.39,0-0.706,0.316-0.706,0.706s0.316,0.706,0.706,0.706C23.629-73.259,23.944-73.575,23.944-73.965"/>
			<path clip-path="url(#SVGID_10_)" fill="#FFFFFF" d="M21.823-80.189c0,0-0.071-0.047-0.196-0.135v-11.163
				c16.618,0,38.8,24.853,38.8,24.853L21.823-80.189z"/>
			<path clip-path="url(#SVGID_10_)" fill="#15212E" d="M21.505-80.258v-41.959c0,0,8.53,17.974,8.53,26.507
				S21.505-80.258,21.505-80.258"/>
		</g>
	</g>
</symbol>
<g>
	<polygon fill="#FFFFFF" points="287.866,0 277.53,10.336 298.202,10.336 	"/>
	<polygon fill="#FFFFFF" points="255.042,0 244.707,10.336 265.378,10.336 	"/>
	<polygon fill="#FFFFFF" points="271.404,0 261.068,10.336 281.74,10.336 	"/>
</g>
<g>
	<polygon fill="#E8EAEB" points="255.552,47.52 248.734,54.338 262.369,54.338 	"/>
	<polygon fill="#E8EAEB" points="233.9,47.52 227.083,54.338 240.718,54.338 	"/>
	<polygon fill="#E8EAEB" points="244.693,47.52 237.875,54.338 251.51,54.338 	"/>
</g>
<g>
	<polygon fill="#61B498" points="280.517,29.915 295.527,37.115 295.527,29.915 	"/>
	<path fill="#9C4575" d="M281.779,36.293l-16.546-16.546c0,0,11.306,4.022,15.875,8.591
		C285.677,32.907,281.779,36.293,281.779,36.293"/>
	<path fill="#15212E" d="M285.497,29.915L285.497,29.915c0,3.976-3.224,7.2-7.2,7.2c-3.976,0-7.201-3.223-7.201-7.2H285.497z"/>
	<path fill="#15212E" d="M271.096,29.915L271.096,29.915c0,1.448-1.174,2.622-2.622,2.622c-1.448,0-2.622-1.174-2.622-2.622H271.096
		z"/>
	<polygon fill="#CE5A67" points="258.063,29.915 267.819,32.456 267.024,29.915 	"/>
	<path fill="#D0C64A" d="M268.999,30.091c-0.423,0.001-0.766,0.345-0.764,0.769c0.001,0.423,0.346,0.765,0.769,0.764
		c0.423-0.001,0.765-0.345,0.764-0.768C269.766,30.431,269.422,30.09,268.999,30.091"/>
	<path fill="#1D1D1B" d="M268.569,30.857c0,0.242,0.196,0.439,0.439,0.439c0.242,0,0.439-0.196,0.439-0.439
		c0-0.242-0.197-0.439-0.439-0.439C268.766,30.419,268.569,30.615,268.569,30.857"/>
	<path fill="#D6D5D5" d="M268.377,30.897c0,0.106,0.086,0.192,0.192,0.192c0.106,0,0.192-0.086,0.192-0.192
		c0-0.106-0.086-0.192-0.192-0.192C268.464,30.705,268.377,30.791,268.377,30.897"/>
	<path fill="#C65338" d="M278.336,33.113l16.546,16.546c0,0-11.541-4.185-16.109-8.754
		C274.203,36.336,278.336,33.113,278.336,33.113"/>
</g>
<use xlink:href="#footer_desktop"  width="1405.062" height="376.518" id="XMLID_3_" x="-701.894" y="-188.258" transform="matrix(0.2686 0 0 -0.2686 188.5376 111.9374)" overflow="visible"/>
</svg>
