<?xml version="1.0" encoding="utf-8"?>
<!-- Generator: Adobe Illustrator 16.0.0, SVG Export Plug-In . SVG Version: 6.00 Build 0)  -->
<!DOCTYPE svg PUBLIC "-//W3C//DTD SVG 1.1//EN" "http://www.w3.org/Graphics/SVG/1.1/DTD/svg11.dtd">
<svg version="1.1" id="Layer_1" xmlns="http://www.w3.org/2000/svg" xmlns:xlink="http://www.w3.org/1999/xlink" x="0px" y="0px"
	 width="520.216px" height="383.829px" viewBox="0 0 520.216 383.829" enable-background="new 0 0 520.216 383.829"
	 xml:space="preserve">
<g>
	<path fill="none" d="M489.39,31.23l-85.866,321.502c-1.134,4.257-5.567,7.688-9.957,7.688H37.578c-4.334,0-6.969-3.432-5.845-7.688
		L117.525,31.23c1.144-4.233,5.621-7.66,10.025-7.66H483.51C487.869,23.57,490.523,26.997,489.39,31.23z"/>
	<g>
		<path fill="#FFFFFF" d="M513.282,0L110.65,0c-4.989,0-10.039,3.871-11.339,8.656L1.18,375.143
			c-1.281,4.82,1.705,8.687,6.608,8.687h402.657c4.957,0,9.971-3.866,11.253-8.687L519.92,8.657C521.201,3.871,518.205,0,513.282,0z
			 M489.39,31.23l-85.866,321.502c-1.134,4.257-5.567,7.688-9.957,7.688H37.578c-4.334,0-6.969-3.432-5.845-7.688L117.525,31.23
			c1.144-4.233,5.621-7.66,10.025-7.66H483.51C487.869,23.57,490.523,26.997,489.39,31.23z"/>
		<path fill="#FFFFFF" d="M387.322,113.378l-64.456,7.691c-1.202,0.173-2.131,1.191-2.164,2.434v38.04h0.001
			c0,1.396,1.13,2.528,2.525,2.53l17.415-1.941c0,0,0,73.832,0,82.832c0,12.114,10.758,23.844,27.774,23.844
			c9.143,0,15.606,0,18.91,0c1.39-0.002,2.517-1.126,2.524-2.515V115.906C389.852,114.51,388.719,113.378,387.322,113.378z"/>
		<path fill="#FFFFFF" d="M272.18,113.432h-21.258c-1.397,0-2.53,1.133-2.53,2.53v83.453l-32.568-56.349
			c-12.549-21.018-30.429-29.634-57.389-29.634h-23.598c-1.385,0.015-2.503,1.141-2.503,2.529v129.102
			c0,15.747,14.679,23.872,28.566,23.872h18.27v-0.001c1.377,0,2.496-1.1,2.528-2.469v-87.51l38.703,59.451
			c16.542,25.216,33.614,30.528,54.406,30.528h20.435c1.396,0,2.526-1.129,2.53-2.523V136.714
			C297.771,124.491,285.555,113.432,272.18,113.432z"/>
	</g>
</g>
</svg>
