<?xml version="1.0" encoding="utf-8"?>
<!-- Generator: Adobe Illustrator 17.1.0, SVG Export Plug-In . SVG Version: 6.00 Build 0)  -->
<!DOCTYPE svg PUBLIC "-//W3C//DTD SVG 1.1//EN" "http://www.w3.org/Graphics/SVG/1.1/DTD/svg11.dtd">
<svg version="1.1" id="Layer_1" xmlns="http://www.w3.org/2000/svg" xmlns:xlink="http://www.w3.org/1999/xlink" x="0px" y="0px"
	 viewBox="0 0 612 57.28" enable-background="new 0 0 612 57.28" xml:space="preserve">
<symbol  id="footer_desktop_stimplar" viewBox="-713.215 -47.828 1426.43 135.965">
	<g>
		<polygon fill="#C2BD99" points="-713.215,-47.828 713.214,-47.828 713.214,31.507 -713.215,31.507 		"/>
		<g>
			<polygon fill="#C85338" points="-226.26,-25.733 -257.073,-25.733 -217.245,30.175 			"/>
			<polygon fill="#E19F54" points="-243.892,-25.733 -257.074,-25.733 -217.247,30.175 			"/>
			<polyline fill="#C85338" points="-273.117,15.86 -261.472,-25.733 -278.682,-25.733 			"/>
			<polyline fill="#E19F54" points="-273.117,15.86 -270.075,-25.733 -278.682,-25.733 			"/>
			<polygon fill="#E19F54" points="-275.736,-25.733 -303.682,-25.733 -298.65,3.623 			"/>
			<polygon fill="#C85338" points="-238.548,-25.733 -210.603,-25.733 -215.635,3.623 			"/>
			<polygon fill="#C85338" points="-264.632,-25.733 -293.689,-25.733 -291.677,32.975 			"/>
			<polygon fill="#E19F54" points="-288.053,-25.733 -293.69,-25.733 -291.678,32.975 			"/>
			<polygon fill="#C85338" points="-234.75,-25.733 -275.738,-25.733 -244.45,39.36 			"/>
			<polygon fill="#E19F54" points="-264.632,-25.733 -275.735,-25.733 -244.452,39.36 			"/>
			<path fill="#15212E" d="M-295.078-3.772c-12.129,0-21.959-21.959-21.959-21.959h43.918
				C-273.119-25.732-282.949-3.772-295.078-3.772"/>
			<path fill="#15212E" d="M-256.021-3.772c-12.129,0-21.959-21.959-21.959-21.959h43.918
				C-234.062-25.732-243.892-3.772-256.021-3.772"/>
			<path fill="#15212E" d="M-216.588-3.772c-12.129,0-21.959-21.959-21.959-21.959h43.918
				C-194.629-25.732-204.459-3.772-216.588-3.772"/>
		</g>
		<polygon fill="#FFFFFF" points="-373.633,79.232 -370.302,79.232 -370.302,88.137 -373.633,88.137 		"/>
		<polygon fill="#FFFFFF" points="-461.201,79.232 -457.867,79.232 -457.867,88.137 -461.201,88.137 		"/>
		<g>
			<polygon fill="#4AA35E" points="-464.627,79.778 -379.545,79.778 -379.545,-8.352 -435.486,-8.352 -464.627,-8.352 
				-493.767,-8.352 			"/>
			<g>
				<path fill="#AFA75D" d="M-452.378,4.159c10.17,0,18.413-12.938,18.413-12.938h-36.827
					C-470.791-8.779-462.548,4.159-452.378,4.159"/>
				<path fill="#827E47" d="M-489.207,4.285c10.17,0,18.416-12.938,18.416-12.938h-36.829
					C-507.621-8.654-499.378,4.285-489.207,4.285"/>
				<polygon fill="#C85338" points="-408.685,-8.352 -350.406,-8.352 -379.545,79.779 				"/>
				<polygon fill="#FFFFFF" points="-379.546,79.778 -350.407,-8.352 -379.546,-8.352 				"/>
				<polygon fill="#15212E" points="-387.057,-8.352 -372.035,-8.352 -379.545,79.779 				"/>
				<path fill="#827E47" d="M-415.549,4.285c10.17,0,18.413-12.938,18.413-12.938h-36.827
					C-433.963-8.654-425.72,4.285-415.549,4.285"/>
			</g>
		</g>
	</g>
	<g>
		<polygon fill="#FFFFFF" points="-102.713,13.572 -91.321,68.809 -63.353,68.627 -28.407,68.401 -6.315,17.607 		"/>
		<polygon fill="#2CB1A7" points="-91.776,66.505 -81.408,66.438 -81.745,14.45 -102.713,13.572 		"/>
		<polygon fill="#2CB1A7" points="-78.74,66.421 -41.349,66.179 -22.257,16.762 -79.076,14.554 		"/>
		<polygon fill="#E55132" points="2.446,12.735 -149.539,6.902 -149.508,11.717 -1.696,17.577 		"/>
		<polygon fill="#FFFFFF" points="-6.775,-6.627 -34.388,-6.448 -137.316,-5.781 -149.539,6.902 2.446,12.735 		"/>
		<path fill="#C3BD98" d="M-110.207-5.55c-0.036-5.516-4.536-9.957-10.055-9.922c-5.516,0.036-9.953,4.536-9.918,10.051
			c0.036,5.518,4.531,9.96,10.047,9.924C-114.613,4.468-110.171-0.031-110.207-5.55z"/>
		<path fill="#141414" d="M-113.049-5.531c-0.026-3.944-3.248-7.119-7.19-7.093c-3.947,0.026-7.124,3.242-7.098,7.186
			c0.026,3.945,3.244,7.122,7.191,7.096C-116.205,1.632-113.023-1.587-113.049-5.531z"/>
		<path fill="#FFFFFF" d="M-117.482-5.502c-0.01-1.495-1.231-2.701-2.729-2.691c-1.498,0.01-2.704,1.231-2.694,2.726
			c0.01,1.498,1.231,2.701,2.729,2.692C-118.678-2.785-117.472-4.005-117.482-5.502z"/>
		<path fill="#C3BD98" d="M-27.174-6.088c-0.036-5.516-4.536-9.957-10.055-9.922c-5.516,0.036-9.953,4.536-9.918,10.051
			c0.036,5.518,4.531,9.96,10.047,9.924C-31.58,3.93-27.138-0.57-27.174-6.088z"/>
		<path fill="#141414" d="M-30.016-6.069c-0.026-3.944-3.248-7.119-7.19-7.093c-3.947,0.026-7.124,3.242-7.098,7.186
			c0.026,3.945,3.244,7.122,7.191,7.096C-33.172,1.094-29.991-2.125-30.016-6.069z"/>
		<path fill="#FFFFFF" d="M-34.45-6.041c-0.01-1.495-1.231-2.701-2.729-2.691c-1.498,0.01-2.704,1.231-2.694,2.726
			c0.01,1.498,1.231,2.701,2.729,2.692C-35.646-3.324-34.44-4.543-34.45-6.041z"/>
		<polygon opacity="0.2" fill="#010101" points="-91.776,66.505 -81.408,66.438 -81.745,14.45 -102.713,13.572 		"/>
	</g>
	<g>
		<path fill="#7A6E5D" d="M342.053,4.775h-81.55l31.943,63.886c3.639,7.278,14.025,7.278,17.664,0L342.053,4.775z"/>
		<path opacity="0.5" fill="#0A1C29" d="M301.278,74.119c-3.506,0-7.012-1.819-8.832-5.459L260.503,4.775h40.775V74.119z"/>
		<g>
			<path fill="#B5A95B" d="M258.084,14.65c-7.844,0-14.203-9.979-14.203-9.979h28.406C272.287,4.672,265.928,14.65,258.084,14.65z"
				/>
			<g>
				<path fill="#B5A95B" d="M315.733,14.748c-7.999,0-14.482-10.175-14.482-10.175h28.964
					C330.215,4.573,323.731,14.748,315.733,14.748z"/>
				<path fill="#858043" d="M344.697,14.847c-7.999,0-14.482-10.175-14.482-10.175h28.964
					C359.179,4.672,352.695,14.847,344.697,14.847z"/>
				<path fill="#858043" d="M286.769,14.847c-7.999,0-14.482-10.175-14.482-10.175h28.964
					C301.251,4.672,294.767,14.847,286.769,14.847z"/>
			</g>
		</g>
	</g>
</symbol>
<use xlink:href="#footer_desktop_stimplar"  width="1426.43" height="135.965" id="XMLID_4_" x="-713.215" y="-47.828" transform="matrix(0.4286 0 0 -0.4286 306.2854 36.7792)" overflow="visible"/>
</svg>
